<?xml version="1.0" encoding="UTF-8" standalone="no"?>
<svg
   xmlns:osb="http://www.openswatchbook.org/uri/2009/osb"
   xmlns:dc="http://purl.org/dc/elements/1.1/"
   xmlns:cc="http://creativecommons.org/ns#"
   xmlns:rdf="http://www.w3.org/1999/02/22-rdf-syntax-ns#"
   xmlns:svg="http://www.w3.org/2000/svg"
   xmlns="http://www.w3.org/2000/svg"
   xmlns:sodipodi="http://sodipodi.sourceforge.net/DTD/sodipodi-0.dtd"
   xmlns:inkscape="http://www.inkscape.org/namespaces/inkscape"
   width="210mm"
   height="297mm"
   viewBox="0 0 210 297"
   version="1.1"
   id="svg8"
   inkscape:version="1.0 (4035a4fb49, 2020-05-01)"
   sodipodi:docname="spriteSheet.svg"
   inkscape:export-filename="C:\Users\leahk\Source\Repos\tempest-hopp-git\FarmVerticalShooter\Assets\Sprites\feather.png"
   inkscape:export-xdpi="15.588752"
   inkscape:export-ydpi="15.588752">
  <defs
     id="defs2">
    <linearGradient
       id="linearGradient973"
       osb:paint="gradient">
      <stop
         style="stop-color:#000000;stop-opacity:1;"
         offset="0"
         id="stop969" />
      <stop
         style="stop-color:#af96d3;stop-opacity:0;"
         offset="1"
         id="stop971" />
    </linearGradient>
    <filter
       inkscape:collect="always"
       style="color-interpolation-filters:sRGB"
       id="filter863"
       x="-0.00083229361"
       width="1.0016646"
       y="-0.001537627"
       height="1.0030753">
      <feGaussianBlur
         inkscape:collect="always"
         stdDeviation="0.028574998"
         id="feGaussianBlur865" />
    </filter>
    <filter
       inkscape:collect="always"
       style="color-interpolation-filters:sRGB"
       id="filter1026"
       x="-4.741174e-08"
       width="1.0000001"
       y="-1.7478076e-08"
       height="1">
      <feGaussianBlur
         inkscape:collect="always"
         stdDeviation="1.6500265e-07"
         id="feGaussianBlur1028" />
    </filter>
    <filter
       inkscape:collect="always"
       style="color-interpolation-filters:sRGB"
       id="filter1030"
       x="-6.8078243e-08"
       width="1.0000001"
       y="-1.5992206e-08"
       height="1">
      <feGaussianBlur
         inkscape:collect="always"
         stdDeviation="1.6500265e-07"
         id="feGaussianBlur1032" />
    </filter>
    <filter
       inkscape:collect="always"
       style="color-interpolation-filters:sRGB"
       id="filter1034"
       x="-4.6772403e-09"
       width="1"
       y="-4.6772403e-09"
       height="1">
      <feGaussianBlur
         inkscape:collect="always"
         stdDeviation="1.6500265e-07"
         id="feGaussianBlur1036" />
    </filter>
    <filter
       inkscape:collect="always"
       style="color-interpolation-filters:sRGB"
       id="filter1038"
       x="-1.3227762e-08"
       width="1"
       y="-1.0517836e-08"
       height="1">
      <feGaussianBlur
         inkscape:collect="always"
         stdDeviation="1.6500265e-07"
         id="feGaussianBlur1040" />
    </filter>
    <filter
       inkscape:collect="always"
       style="color-interpolation-filters:sRGB"
       id="filter1042"
       x="-7.079067e-09"
       width="1"
       y="-7.079067e-09"
       height="1">
      <feGaussianBlur
         inkscape:collect="always"
         stdDeviation="1.6500265e-07"
         id="feGaussianBlur1044" />
    </filter>
    <filter
       inkscape:collect="always"
       style="color-interpolation-filters:sRGB"
       id="filter1046"
       x="-4.0296226e-08"
       width="1.0000001"
       y="-2.1827121e-08"
       height="1">
      <feGaussianBlur
         inkscape:collect="always"
         stdDeviation="1.6500265e-07"
         id="feGaussianBlur1048" />
    </filter>
    <filter
       inkscape:collect="always"
       style="color-interpolation-filters:sRGB"
       id="filter1050"
       x="-5.2385093e-08"
       width="1.0000001"
       y="-5.8205659e-08"
       height="1.0000001">
      <feGaussianBlur
         inkscape:collect="always"
         stdDeviation="1.6500265e-07"
         id="feGaussianBlur1052" />
    </filter>
    <filter
       inkscape:collect="always"
       style="color-interpolation-filters:sRGB"
       id="filter1054"
       x="-1.7920397e-08"
       width="1"
       y="-1.5839526e-08"
       height="1">
      <feGaussianBlur
         inkscape:collect="always"
         stdDeviation="2.4196025e-07"
         id="feGaussianBlur1056" />
    </filter>
    <filter
       inkscape:collect="always"
       style="color-interpolation-filters:sRGB"
       id="filter1058"
       x="-1.062389e-08"
       width="1"
       y="-8.2169811e-09"
       height="1">
      <feGaussianBlur
         inkscape:collect="always"
         stdDeviation="1.6500265e-07"
         id="feGaussianBlur1060" />
    </filter>
  </defs>
  <sodipodi:namedview
     id="base"
     pagecolor="#ffffff"
     bordercolor="#666666"
     borderopacity="1.0"
     inkscape:pageopacity="0.0"
     inkscape:pageshadow="2"
     inkscape:zoom="0.35"
     inkscape:cx="394.28571"
     inkscape:cy="719.04762"
     inkscape:document-units="mm"
     inkscape:current-layer="layer1"
     inkscape:document-rotation="0"
     showgrid="true"
     inkscape:window-width="1920"
     inkscape:window-height="1001"
     inkscape:window-x="-9"
     inkscape:window-y="-9"
     inkscape:window-maximized="1">
    <sodipodi:guide
       id="guide965"
       orientation="0,793.70079"
       position="0,297" />
    <sodipodi:guide
       id="guide967"
       orientation="1122.5197,0"
       position="210,297" />
    <sodipodi:guide
       id="guide969"
       orientation="0,-793.70079"
       position="210,0" />
    <sodipodi:guide
       id="guide971"
       orientation="-1122.5197,0"
       position="0,0" />
    <inkscape:grid
       id="grid973"
       type="xygrid" />
  </sodipodi:namedview>
  <metadata
     id="metadata5">
    <rdf:RDF>
      <cc:Work
         rdf:about="">
        <dc:format>image/svg+xml</dc:format>
        <dc:type
           rdf:resource="http://purl.org/dc/dcmitype/StillImage" />
        <dc:title />
      </cc:Work>
    </rdf:RDF>
  </metadata>
  <g
     inkscape:label="Layer 1"
     inkscape:groupmode="layer"
     id="layer1">
    <g
       id="g878"
       transform="matrix(0.52234434,0,0,0.52234434,-106.20361,-110.00354)"
       inkscape:export-xdpi="27.899258"
       inkscape:export-ydpi="27.899258">
      <g
         transform="matrix(0.40350875,0,0,0.40350875,63.486735,75.820694)"
         id="g851">
        <circle
           style="opacity:0.998;fill:#000000;fill-opacity:0.980392;stroke-width:0.904874"
           id="path839"
           cx="111.50297"
           cy="129.64583"
           r="64.633926" />
        <ellipse
           style="opacity:0.998;fill:#9f0000;fill-opacity:0.980392;stroke-width:0.264583"
           id="path841"
           cx="86.934525"
           cy="111.50298"
           rx="6.8035712"
           ry="16.252975" />
        <ellipse
           ry="16.252975"
           rx="6.8035712"
           cy="110.74703"
           cx="131.53572"
           id="ellipse843"
           style="opacity:0.998;fill:#9f0000;fill-opacity:0.980392;stroke-width:0.264583" />
        <path
           sodipodi:type="star"
           style="font-variation-settings:normal;opacity:1;vector-effect:none;fill:#ffff00;fill-opacity:1;fill-rule:evenodd;stroke-width:0.264583;stroke-linecap:butt;stroke-linejoin:miter;stroke-miterlimit:4;stroke-dasharray:none;stroke-dashoffset:0;stroke-opacity:1;stop-color:#000000;stop-opacity:1"
           id="path845"
           sodipodi:sides="3"
           sodipodi:cx="107.34523"
           sodipodi:cy="149.67857"
           sodipodi:r1="21.180161"
           sodipodi:r2="10.59008"
           sodipodi:arg1="1.5707963"
           sodipodi:arg2="2.6179939"
           inkscape:flatsided="true"
           inkscape:rounded="0"
           inkscape:randomized="0"
           d="m 107.34523,170.85873 -18.342557,-31.77024 36.685117,0 z"
           inkscape:transform-center-x="1.3047619e-06"
           inkscape:transform-center-y="5.2950385" />
      </g>
      <path
         transform="matrix(1.2290606,0,0,-1.130137,-32.338746,276.98665)"
         id="path853"
         d="m 124.73214,146.65476 c 58.96428,-1.5119 82.3988,-44.60119 82.3988,-44.60119 -34.77381,34.01786 -75.59523,19.65476 -75.59523,19.65476 z"
         style="fill:#000000;fill-opacity:0.985294;stroke:#000000;stroke-width:0.265;stroke-linecap:butt;stroke-linejoin:miter;stroke-miterlimit:4;stroke-dasharray:none;stroke-opacity:1;filter:url(#filter863)" />
      <path
         transform="matrix(-1.13717,0,0,-1.0991485,234.84589,274.29017)"
         id="path869"
         d="m 124.73214,146.65476 c 58.96428,-1.5119 82.3988,-44.60119 82.3988,-44.60119 -34.77381,34.01786 -75.59523,19.65476 -75.59523,19.65476 z"
         style="fill:#000000;fill-opacity:0.985294;stroke:#000000;stroke-width:0.265;stroke-linecap:butt;stroke-linejoin:miter;stroke-miterlimit:4;stroke-dasharray:none;stroke-opacity:1;filter:url(#filter863)" />
    </g>
    <g
       id="g892"
       style="stroke:#a40000;stroke-opacity:1"
       transform="translate(294.82143,-102.80952)"
       inkscape:export-xdpi="62.262161"
       inkscape:export-ydpi="62.262161">
      <ellipse
         ry="20.420977"
         rx="12.861453"
         cy="152.85352"
         cx="106.58928"
         id="path880"
         style="opacity:0.998;fill:#ffffff;fill-opacity:0.985294;stroke:#a40000;stroke-width:0.244476;stroke-miterlimit:4;stroke-dasharray:none;stroke-opacity:1" />
      <ellipse
         ry="22.286304"
         rx="16.994637"
         cy="156.10416"
         cx="103.94345"
         id="path882"
         style="opacity:0.998;fill:#ffffff;fill-opacity:0.985294;stroke:#a40000;stroke-width:0.293581;stroke-miterlimit:4;stroke-dasharray:none;stroke-opacity:1" />
      <ellipse
         style="opacity:0.998;fill:#ffffff;fill-opacity:0.985294;stroke:#a40000;stroke-width:0.252592;stroke-miterlimit:4;stroke-dasharray:none;stroke-opacity:1"
         id="ellipse884"
         cx="101.67559"
         cy="152.32439"
         rx="13.991322"
         ry="20.038942" />
      <ellipse
         ry="23.430508"
         rx="13.981101"
         cy="149.60306"
         cx="103.64109"
         id="ellipse886"
         style="opacity:0.998;fill:#ffffff;fill-opacity:0.985294;stroke:#a40000;stroke-width:0.273033;stroke-miterlimit:4;stroke-dasharray:none;stroke-opacity:1" />
    </g>
    <g
       id="g1071"
       transform="matrix(0.51204818,0,0,0.51204818,271.04081,-84.871883)"
       inkscape:export-xdpi="46.675205"
       inkscape:export-ydpi="46.675205">
      <path
         d="m 85.378797,248.03836 c -1.01605,2.22936 -2.457418,4.23865 -3.812037,6.27131 -1.335302,1.68718 -2.391805,3.53831 -3.302614,5.48123 0,0 1.273212,10.90478 1.273212,10.90478 v 0 c 0.78563,-1.97882 1.828509,-3.85077 3.114357,-5.55045 1.265296,-2.02767 2.676499,-3.9677 3.964927,-5.97211 0,0 -1.237845,-11.13476 -1.237845,-11.13476 z"
         id="path952"
         style="opacity:0.998;fill:#ff4c00;fill-opacity:1;stroke:none;stroke-width:0.264999;stroke-miterlimit:4;stroke-dasharray:none;stroke-opacity:1;filter:url(#filter1026)" />
      <path
         d="m 55.108842,245.78011 c -0.617646,2.49897 -1.176835,5.01473 -1.904248,7.48461 -0.564074,2.23849 -1.445496,4.34873 -2.430267,6.42745 0,0 1.237369,10.8504 1.237369,10.8504 v 0 c 0.974418,-2.134 2.047221,-4.22466 2.562905,-6.53506 0.772014,-2.34528 1.258062,-4.76388 2.016656,-7.11185 0,0 -1.482415,-11.11555 -1.482415,-11.11555 z"
         id="path950"
         style="opacity:0.998;fill:#ff4c00;fill-opacity:1;stroke:none;stroke-width:0.264999;stroke-miterlimit:4;stroke-dasharray:none;stroke-opacity:1;filter:url(#filter1030)" />
      <circle
         r="42.333336"
         cy="217.71428"
         cx="71.059525"
         id="path894"
         style="opacity:0.998;fill:#ffcc00;fill-opacity:0.985294;stroke:none;stroke-width:0.395732;stroke-miterlimit:4;stroke-dasharray:none;stroke-opacity:1;filter:url(#filter1034)" />
      <path
         id="path906"
         d="m 114.14881,158.75 c 0,0 1.5119,-37.04167 -7.55953,-9.07143 0,0 -15.119042,-34.77381 -9.827375,1.51191 0,0 -21.166667,-18.89881 -8.315476,9.07142 12.851191,27.97024 25.702381,-1.5119 25.702381,-1.5119 z"
         style="fill:#ff0000;fill-opacity:1;stroke:none;stroke-width:0.264583px;stroke-linecap:butt;stroke-linejoin:miter;stroke-opacity:1;filter:url(#filter1038)" />
      <circle
         r="27.970238"
         cy="180.67262"
         cx="102.05357"
         id="path896"
         style="opacity:0.998;fill:#ffcc00;fill-opacity:0.985294;stroke:none;stroke-width:0.264999;stroke-miterlimit:4;stroke-dasharray:none;stroke-opacity:1;filter:url(#filter1042)" />
      <ellipse
         ry="9.0714293"
         rx="4.9136906"
         cy="173.11311"
         cx="113.01488"
         id="path898"
         style="opacity:0.998;fill:#ffffff;fill-opacity:0.985294;stroke:none;stroke-width:0.398457;stroke-miterlimit:4;stroke-dasharray:none;stroke-opacity:1;filter:url(#filter1046)" />
      <ellipse
         ry="3.4017859"
         rx="3.779762"
         cy="173.94466"
         cx="114.2244"
         id="path900"
         style="opacity:0.998;fill:#000000;fill-opacity:0.985294;stroke:none;stroke-width:0.180031;stroke-miterlimit:4;stroke-dasharray:none;stroke-opacity:1;filter:url(#filter1050)" />
      <path
         transform="matrix(1,0,0,0.46504377,-4.5357143,136.31238)"
         inkscape:transform-center-y="-0.17577557"
         inkscape:transform-center-x="-4.9643279"
         d="m 158.74999,100.54167 -32.40467,17.19694 1.30935,-36.661743 z"
         inkscape:randomized="0"
         inkscape:rounded="0"
         inkscape:flatsided="true"
         sodipodi:arg2="1.0828967"
         sodipodi:arg1="0.035699113"
         sodipodi:r2="10.59008"
         sodipodi:r1="21.180161"
         sodipodi:cy="99.785713"
         sodipodi:cx="137.58333"
         sodipodi:sides="3"
         id="path904"
         style="font-variation-settings:normal;opacity:1;vector-effect:none;fill:#ff8d00;fill-opacity:1;fill-rule:evenodd;stroke-width:0.264583;stroke-linecap:butt;stroke-linejoin:miter;stroke-miterlimit:4;stroke-dasharray:none;stroke-dashoffset:0;stroke-opacity:1;filter:url(#filter1054);stop-color:#000000;stop-opacity:1"
         sodipodi:type="star" />
      <path
         d="m 69.855301,192.50882 c 0.373962,3.23674 0.163574,6.44301 -0.209182,9.66393 -0.90801,4.9118 -2.597404,8.26361 -5.988354,11.90447 -1.762432,1.93004 -3.990673,3.30703 -6.038919,4.88816 -0.873323,0.67416 -1.624131,1.42341 -2.422718,2.18016 -1.864635,2.0302 -3.776832,4.46873 -4.191738,7.29538 -0.07195,0.49017 -0.0042,0.99084 -0.0062,1.48626 0.289946,0.48732 0.501062,1.03119 0.869836,1.46195 2.209303,2.58065 6.006637,3.2476 9.146651,3.79388 3.913711,0.42173 7.98099,0.76872 11.867716,-0.0862 0.697547,-0.15342 1.372484,-0.3959 2.058726,-0.59384 4.840641,-2.26282 4.977368,-2.25634 12.271557,-7.11792 0.485055,-0.32329 0.689073,-0.94041 1.033608,-1.41061 0,0 -9.919562,4.20874 -9.919562,4.20874 v 0 c -0.375598,0.38523 -1.612223,1.38773 -1.126787,1.15571 2.897005,-1.38467 11.511722,-6.57194 6.130409,-3.34642 -0.67115,0.24661 -1.325583,0.54463 -2.013447,0.73983 -3.773575,1.07086 -7.767304,0.73916 -11.610126,0.34892 -2.834476,-0.43583 -6.366912,-0.88226 -8.432789,-3.14256 -0.243999,-0.26697 -0.374213,-0.61902 -0.561319,-0.92853 0.02191,-0.39936 -0.01146,-0.80565 0.06576,-1.19809 0.531392,-2.7005 2.555811,-4.87177 4.413814,-6.75728 2.710793,-2.41103 5.814538,-4.3674 8.235209,-7.1021 3.031132,-3.7072 5.042236,-7.70679 5.744064,-12.49246 0.406037,-3.33942 0.499049,-6.67291 0.651801,-10.03035 0,0 -9.967968,5.07893 -9.967968,5.07893 z"
         id="path932"
         style="opacity:0.998;fill:#000000;fill-opacity:1;stroke:none;stroke-width:0.264999;stroke-miterlimit:4;stroke-dasharray:none;stroke-opacity:1;filter:url(#filter1058)" />
    </g>
    <g
       id="g1275"
       transform="translate(203.35119,271.38691)">
      <g
         transform="matrix(0.56108284,0,0,0.56108284,-11.233118,48.316756)"
         id="g1119">
        <g
           id="g1105">
          <ellipse
             inkscape:export-ydpi="32.546463"
             inkscape:export-xdpi="32.546463"
             ry="38.931545"
             rx="18.520834"
             cy="215.8244"
             cx="60.098213"
             id="path1073"
             style="opacity:0.995;fill:#ff8800;fill-opacity:1;stroke:none;stroke-width:0.264999;stroke-miterlimit:4;stroke-dasharray:none;stroke-opacity:1" />
          <ellipse
             inkscape:export-ydpi="32.546463"
             inkscape:export-xdpi="32.546463"
             style="opacity:0.995;fill:#ff8800;fill-opacity:1;stroke:none;stroke-width:0.264999;stroke-miterlimit:4;stroke-dasharray:none;stroke-opacity:1"
             id="ellipse1075"
             cx="72.193451"
             cy="215.8244"
             rx="18.520834"
             ry="38.931545" />
          <ellipse
             inkscape:export-ydpi="32.546463"
             inkscape:export-xdpi="32.546463"
             ry="38.931545"
             rx="18.520834"
             cy="215.8244"
             cx="85.04464"
             id="ellipse1077"
             style="opacity:0.995;fill:#ff8800;fill-opacity:1;stroke:none;stroke-width:0.264999;stroke-miterlimit:4;stroke-dasharray:none;stroke-opacity:1" />
          <ellipse
             inkscape:export-ydpi="32.546463"
             inkscape:export-xdpi="32.546463"
             style="opacity:0.995;fill:#ff8800;fill-opacity:1;stroke:none;stroke-width:0.264999;stroke-miterlimit:4;stroke-dasharray:none;stroke-opacity:1"
             id="ellipse1079"
             cx="97.895828"
             cy="215.06845"
             rx="18.520834"
             ry="38.931545" />
          <path
             inkscape:export-ydpi="32.546463"
             inkscape:export-xdpi="32.546463"
             d="m 91.355904,190.58012 c 0.690851,5.75995 1.432398,11.50816 2.309397,17.24314 1.710923,8.87417 2.394995,17.87362 2.794251,26.88641 0.166161,4.51727 0.214413,9.03723 0.256664,13.55687 0,0 1.558383,-9.93704 1.558383,-9.93704 v 0 c -0.09369,-4.36906 -0.18896,-8.73825 -0.354605,-13.10535 -0.384048,-9.1277 -1.149456,-18.22564 -2.846829,-27.21567 -0.86464,-6.11042 -1.705867,-12.24906 -1.976689,-18.41789 0,0 -1.740572,10.98953 -1.740572,10.98953 z"
             id="path1085"
             style="opacity:0.995;fill:#000000;fill-opacity:1;stroke:none;stroke-width:0.264999;stroke-miterlimit:4;stroke-dasharray:none;stroke-opacity:1" />
        </g>
      </g>
      <g
         transform="matrix(0.56108284,0,0,0.56108284,-11.233118,48.316756)"
         id="g1111">
        <g
           id="g1098">
          <path
             inkscape:export-ydpi="32.546463"
             inkscape:export-xdpi="32.546463"
             d="m 87.494262,167.67447 c -0.228912,-18.85817 1.29939,-12.41417 -0.711455,-8.53672 -0.658758,1.27027 -1.768485,2.48633 -2.827789,3.70298 -3.150643,3.16438 -5.736497,6.41921 -8.376832,9.66362 -5.133813,6.63874 -3.374806,11.9961 -3.090778,19.32345 1.892861,1.63912 6.361678,1.70535 9.95391,2.32986 0,0 0.948852,-11.06835 0.948852,-11.06835 v 0 c -3.002599,-0.44484 -6.668469,-0.61394 -7.203374,-2.17937 -0.06163,3.31788 -0.09192,6.63589 -0.18495,9.95364 -0.01135,0.40465 -0.110176,-0.80965 -0.06014,-1.21377 0.271892,-2.19501 1.539467,-4.36954 2.796525,-6.49033 2.482529,-3.22151 5.136778,-6.42983 8.288021,-9.54552 6.298551,-6.48547 5.236102,-7.78481 4.606575,-16.98907 0,0 -4.13858,11.04958 -4.13858,11.04958 z"
             id="path1093"
             style="opacity:0.995;fill:#007900;fill-opacity:1;stroke:none;stroke-width:0.407512;stroke-miterlimit:4;stroke-dasharray:none;stroke-opacity:1" />
          <path
             inkscape:export-ydpi="32.546463"
             inkscape:export-xdpi="32.546463"
             d="m 76.988053,194.20905 c 0.08513,4.83549 0.01614,9.67058 0.178355,14.50433 0.241414,8.29172 1.524561,16.50108 2.350942,24.74519 0.40844,4.28611 0.684871,8.58251 0.948203,12.87932 0,0 1.518645,-10.0406 1.518645,-10.0406 v 0 c -0.324874,-4.11828 -0.661535,-8.23565 -1.057868,-12.34781 -0.84393,-8.44047 -1.983136,-16.86659 -2.185699,-25.35679 -0.112995,-5.14373 -0.06951,-10.28885 -0.0024,-15.43321 0,0 -1.750081,11.04957 -1.750081,11.04957 z"
             id="path1087"
             style="opacity:0.995;fill:#000000;fill-opacity:1;stroke:none;stroke-width:0.264999;stroke-miterlimit:4;stroke-dasharray:none;stroke-opacity:1" />
          <path
             inkscape:export-ydpi="32.546463"
             inkscape:export-xdpi="32.546463"
             d="m 62.068857,197.24757 c 0.421669,4.51794 0.694955,9.05135 0.925174,13.58348 0.385215,8.47552 0.284769,16.96062 0.796264,25.43008 0.334404,4.54389 0.123883,2.37471 0.606504,6.50993 0,0 1.501593,-10.26442 1.501593,-10.26442 v 0 c -0.46767,-3.86736 -0.257964,-1.82984 -0.605354,-6.11496 -0.503663,-8.49348 -0.377259,-17.00167 -0.772501,-25.50019 -0.212662,-4.90878 -0.378873,-9.83956 -0.920451,-14.72291 0,0 -1.531229,11.07899 -1.531229,11.07899 z"
             id="path1089"
             style="opacity:0.995;fill:#000000;fill-opacity:1;stroke:none;stroke-width:0.264999;stroke-miterlimit:4;stroke-dasharray:none;stroke-opacity:1" />
        </g>
      </g>
    </g>
    <g
       id="g1410"
       transform="matrix(0.36977611,0,0,0.3519415,-139.62015,-33.024459)">
      <g
         inkscape:export-ydpi="15.588752"
         inkscape:export-xdpi="15.588752"
         transform="translate(-29.482142,25.702381)"
         id="g1342">
        <path
           style="opacity:0.995;fill:#000000;fill-opacity:1;stroke:none;stroke-width:1.76294;stroke-miterlimit:4;stroke-dasharray:none;stroke-opacity:1"
           id="path1125"
           d="m 75.491492,280.28384 c 6.756333,-42.78111 29.090328,-84.28754 57.657638,-124.54348 12.62769,-15.962 27.52343,-31.45538 44.57729,-46.32616 0,0 -4.35262,-20.925646 -4.35262,-20.925646 v 0 c -17.36822,15.018906 -32.27604,30.746196 -45.20825,46.864916 -28.650605,40.09728 -51.378879,81.44878 -58.761953,124.06107 0,0 6.087895,20.8693 6.087895,20.8693 z" />
        <path
           style="opacity:0.995;fill:#000000;fill-opacity:1;stroke:none;stroke-width:0.264999;stroke-miterlimit:4;stroke-dasharray:none;stroke-opacity:1"
           id="path1135"
           d="m 169.5094,113.74771 c 4.01514,-2.29748 8.43049,-3.76169 12.81741,-5.16533 0,0 -0.27567,-8.830094 -0.27567,-8.830094 v 0 c -4.39809,1.430634 -8.86106,2.827264 -12.95898,5.002794 0,0 0.41724,8.99263 0.41724,8.99263 z" />
        <path
           style="opacity:0.995;fill:#000000;fill-opacity:1;stroke:none;stroke-width:0.264999;stroke-miterlimit:4;stroke-dasharray:none;stroke-opacity:1"
           id="path1137"
           d="m 170.94871,117.22399 c 4.95703,0.50907 9.92054,0.92944 14.87531,1.47744 0,0 0.0921,-8.86468 0.0921,-8.86468 v 0 c -4.96342,-0.48552 -9.94385,-0.87814 -14.87772,-1.60608 0,0 -0.0896,8.99332 -0.0896,8.99332 z" />
        <path
           style="opacity:0.995;fill:#000000;fill-opacity:1;stroke:none;stroke-width:0.264999;stroke-miterlimit:4;stroke-dasharray:none;stroke-opacity:1"
           id="path1139"
           d="m 159.65425,124.6935 c 8.02952,-0.0271 16.00998,1.28489 23.96491,2.25181 1.67441,0.20309 3.34882,0.40619 5.02323,0.60929 0,0 0.10069,-8.63881 0.10069,-8.63881 v 0 c -1.67298,-0.18881 -3.34595,-0.37762 -5.01893,-0.56642 -8.00553,-0.99226 -16.00005,-2.34881 -24.0699,-2.65002 0,0 0,8.99415 0,8.99415 z" />
        <path
           style="opacity:0.995;fill:#000000;fill-opacity:1;stroke:none;stroke-width:0.264999;stroke-miterlimit:4;stroke-dasharray:none;stroke-opacity:1"
           id="path1141"
           d="m 152.0499,130.83113 c 12.13689,2.45698 24.09344,5.74806 35.98553,9.18388 2.36425,0.74 4.7285,1.48 7.09276,2.21999 0,0 0.25129,-8.43285 0.25129,-8.43285 v 0 c -2.36986,-0.71357 -4.73973,-1.42714 -7.10959,-2.14071 -11.99352,-3.44805 -24.03537,-6.76088 -36.13035,-9.82363 0,0 -0.0896,8.99332 -0.0896,8.99332 z" />
        <path
           style="opacity:0.995;fill:#000000;fill-opacity:1;stroke:none;stroke-width:0.264999;stroke-miterlimit:4;stroke-dasharray:none;stroke-opacity:1"
           id="path1143"
           d="m 138.57801,143.58845 c 9.63663,-0.2514 19.27366,-0.20917 28.90935,0.0369 10.50904,0.41707 5.28471,0.15702 15.67313,0.77687 0,0 0.0493,-8.40727 0.0493,-8.40727 v 0 c -10.40634,-0.60092 -5.17388,-0.32747 -15.69746,-0.81851 -9.64367,-0.32386 -19.28669,-0.45239 -28.93432,-0.57442 0,0 0,8.98642 0,8.98642 z" />
        <path
           style="opacity:0.995;fill:#000000;fill-opacity:1;stroke:none;stroke-width:0.264999;stroke-miterlimit:4;stroke-dasharray:none;stroke-opacity:1"
           id="path1145"
           d="m 142.14251,159.38403 c 0.65274,-0.18012 1.31043,-0.34319 1.95823,-0.54034 4.41166,-1.34266 8.70897,-2.90171 13.18161,-4.06393 6.34875,-1.64974 6.77299,-1.61031 13.39392,-2.86297 0,0 -0.15472,-8.45748 -0.15472,-8.45748 v 0 c -7.0108,1.26764 -6.75795,1.10469 -13.4668,2.75647 -4.44528,1.09446 -8.7655,2.52814 -13.17687,3.72711 -0.61032,0.16589 -1.2316,0.28847 -1.8474,0.43271 0,0 0.11203,9.00843 0.11203,9.00843 z" />
        <path
           style="opacity:0.995;fill:#000000;fill-opacity:1;stroke:none;stroke-width:0.264999;stroke-miterlimit:4;stroke-dasharray:none;stroke-opacity:1"
           id="path1147"
           d="m 121.10068,165.51493 c 13.22857,-0.2638 26.44899,-0.83156 39.66706,-1.41289 9.52913,-0.45011 19.03661,-1.23443 28.54269,-2.01457 0,0 -0.076,-8.38286 -0.076,-8.38286 v 0 c -9.48382,0.94566 -18.97315,1.87224 -28.49981,2.27652 -13.20486,0.49603 -26.4192,0.88666 -39.63396,0.53965 0,0 0,8.99415 0,8.99415 z" />
        <path
           style="opacity:0.995;fill:#000000;fill-opacity:1;stroke:none;stroke-width:0.264999;stroke-miterlimit:4;stroke-dasharray:none;stroke-opacity:1"
           id="path1149"
           d="m 135.37335,151.91165 c 7.6475,0.0702 15.2222,-1.0977 22.79701,-1.99641 7.0753,-0.80442 14.15037,-1.59905 21.22144,-2.44186 0,0 -0.10658,-8.64675 -0.10658,-8.64675 v 0 c -7.0626,0.90807 -14.13684,1.69508 -21.21639,2.45831 -7.53092,0.88668 -15.09129,2.01253 -22.69548,1.62483 0,0 0,9.00188 0,9.00188 z" />
        <path
           style="opacity:0.995;fill:#000000;fill-opacity:1;stroke:none;stroke-width:0.264999;stroke-miterlimit:4;stroke-dasharray:none;stroke-opacity:1"
           id="path1151"
           d="m 122.59324,179.60948 c 0.65085,-0.20315 1.29386,-0.43341 1.95255,-0.60946 6.02875,-1.61135 12.18254,-2.80996 18.27361,-4.14774 9.58374,-2.10487 6.53556,-1.41704 15.70861,-3.64049 0,0 -0.20349,-8.41046 -0.20349,-8.41046 v 0 c -7.81776,1.96299 -7.54892,1.97203 -15.67755,3.68596 -6.09809,1.28579 -12.2535,2.29811 -18.34282,3.62142 -0.68233,0.14828 -1.35595,0.33411 -2.03393,0.50116 0,0 0.32302,8.99961 0.32302,8.99961 z" />
        <path
           style="opacity:0.995;fill:#000000;fill-opacity:1;stroke:none;stroke-width:0.264999;stroke-miterlimit:4;stroke-dasharray:none;stroke-opacity:1"
           id="path1153"
           d="m 114.63684,187.244 c 11.48133,-2.16724 22.8222,-4.96422 34.18754,-7.65419 4.83026,-1.20439 9.64664,-2.45336 14.43697,-3.80691 0,0 -0.25068,-8.72947 -0.25068,-8.72947 v 0 c -4.76269,1.46698 -9.56038,2.80174 -14.38607,4.04861 -11.29839,2.74394 -22.5857,5.60523 -34.12468,7.17321 0,0 0.13692,8.96875 0.13692,8.96875 z" />
        <path
           style="opacity:0.995;fill:#000000;fill-opacity:1;stroke:none;stroke-width:0.264999;stroke-miterlimit:4;stroke-dasharray:none;stroke-opacity:1"
           id="path1155"
           d="m 109.3991,197.1588 c 12.90217,-1.41726 25.82934,-2.58019 38.75847,-3.72012 2.72797,-0.22095 5.45594,-0.4419 8.1839,-0.66285 0,0 -0.0702,-8.36918 -0.0702,-8.36918 v 0 c -2.72867,0.23756 -5.45735,0.47511 -8.18603,0.71267 -12.90864,1.11079 -25.82091,2.24217 -38.7501,3.07674 0,0 0.0639,8.96274 0.0639,8.96274 z" />
        <path
           style="opacity:0.995;fill:#000000;fill-opacity:1;stroke:none;stroke-width:0.264999;stroke-miterlimit:4;stroke-dasharray:none;stroke-opacity:1"
           id="path1157"
           d="m 89.204831,212.96785 c 5.484836,-1.61658 11.073869,-2.83881 16.663189,-4.03094 8.12491,-1.5865 16.40888,-2.09511 24.65252,-2.66745 0,0 -0.0623,-8.63887 -0.0623,-8.63887 v 0 c -8.2761,0.62115 -16.59797,1.06436 -24.77118,2.58363 -5.59683,1.16205 -11.187848,2.3523 -16.733089,3.74195 0,0 0.25086,9.01168 0.25086,9.01168 z" />
        <path
           style="opacity:0.995;fill:#000000;fill-opacity:1;stroke:none;stroke-width:0.264999;stroke-miterlimit:4;stroke-dasharray:none;stroke-opacity:1"
           id="path1159"
           d="m 103.69443,202.28805 c 8.16699,-2.78635 16.85749,-3.46814 25.39766,-4.20033 1.77563,-0.11692 3.55126,-0.23385 5.32688,-0.35077 0,0 -0.0606,-8.61433 -0.0606,-8.61433 v 0 c -1.77968,0.13371 -3.55935,0.26742 -5.33902,0.40114 -8.60771,0.72824 -17.30644,1.36769 -25.64792,3.76468 0,0 0.32302,8.99961 0.32302,8.99961 z" />
        <path
           style="opacity:0.995;fill:#000000;fill-opacity:1;stroke:none;stroke-width:0.264999;stroke-miterlimit:4;stroke-dasharray:none;stroke-opacity:1"
           id="path1161"
           d="m 89.350677,226.74707 c 7.459263,0.0817 14.901673,0.50848 22.342303,1.01109 4.096,0.26156 8.19206,0.52216 12.28852,0.77637 0,0 0.0473,-8.77357 0.0473,-8.77357 v 0 c -4.09417,-0.18727 -8.18816,-0.38265 -12.2771,-0.66607 -7.46454,-0.50835 -14.930254,-0.94487 -22.400973,-1.34197 0,0 0,8.99415 0,8.99415 z" />
        <path
           style="opacity:0.995;fill:#000000;fill-opacity:1;stroke:none;stroke-width:0.264999;stroke-miterlimit:4;stroke-dasharray:none;stroke-opacity:1"
           id="path1163"
           d="m 83.095752,242.54251 c 7.13236,-1.99403 14.192261,-4.25319 21.333148,-6.23378 5.69863,-1.44603 11.47144,-2.57566 17.24054,-3.69823 0,0 -0.17646,-8.77763 -0.17646,-8.77763 v 0 c -5.7773,1.23009 -11.55849,2.4508 -17.29522,3.86057 -7.079475,1.928 -14.099003,4.11906 -21.229947,5.83319 0,0 0.127939,9.01588 0.127939,9.01588 z" />
        <path
           style="opacity:0.995;fill:#000000;fill-opacity:1;stroke:none;stroke-width:0.264999;stroke-miterlimit:4;stroke-dasharray:none;stroke-opacity:1"
           id="path1165"
           d="m 80.847998,255.84465 c 8.827442,-1.91958 17.675979,-3.70621 26.454712,-5.84601 0,0 -0.20942,-8.65129 -0.20942,-8.65129 v 0 c -8.754556,2.18859 -17.581519,4.03302 -26.478543,5.54888 0,0 0.233251,8.94842 0.233251,8.94842 z" />
        <path
           style="opacity:0.995;fill:#000000;fill-opacity:1;stroke:none;stroke-width:0.264999;stroke-miterlimit:4;stroke-dasharray:none;stroke-opacity:1"
           id="path1167"
           d="m 91.548007,223.54784 c 4.549248,-1.40777 9.115353,-2.72754 13.742083,-3.85741 3.28038,-0.76057 6.61031,-1.26308 9.93434,-1.78374 0,0 -0.12964,-8.73663 -0.12964,-8.73663 v 0 c -3.35199,0.47714 -6.71411,0.92347 -10.01362,1.70286 -4.61936,1.10249 -9.171335,2.43049 -13.75381,3.66992 0,0 0.220647,9.005 0.220647,9.005 z" />
        <path
           style="opacity:0.995;fill:#000000;fill-opacity:1;stroke:none;stroke-width:0.264999;stroke-miterlimit:4;stroke-dasharray:none;stroke-opacity:1"
           id="path1169"
           d="m 162.8239,97.522995 c -2.73159,-2.915995 -6.0005,-5.40257 -8.38331,-8.635397 -0.40981,-0.556003 -0.75318,-1.158044 -1.12977,-1.737064 -0.0345,-0.05864 -1.63271,-2.805181 -1.79531,-2.967617 -0.28368,-0.283403 -0.71152,-0.369996 -1.06729,-0.554992 0,0 -0.48428,8.972883 -0.48428,8.972883 v 0 c 1.25474,0.912283 1.58204,2.150322 2.48214,3.400012 2.76526,3.90189 6.3969,7.00742 9.6738,10.46758 0,0 0.70402,-8.945405 0.70402,-8.945405 z" />
        <path
           style="opacity:0.995;fill:#000000;fill-opacity:1;stroke:none;stroke-width:0.264999;stroke-miterlimit:4;stroke-dasharray:none;stroke-opacity:1"
           id="path1171"
           d="m 163.23447,103.51166 c 0.26972,-5.469749 0.10941,-10.855141 -0.72236,-16.238057 0,0 -1.26071,8.777946 -1.26071,8.777946 v 0 c 0.10732,0.787857 0.23165,1.573585 0.32196,2.363576 0.0809,0.70767 0.15556,2.839605 0.19153,2.128235 0.048,-0.950022 0.0742,-10.723542 0.0602,-5.930388 0,0 1.40942,8.898688 1.40942,8.898688 z" />
        <path
           style="opacity:0.995;fill:#000000;fill-opacity:1;stroke:none;stroke-width:0.264999;stroke-miterlimit:4;stroke-dasharray:none;stroke-opacity:1"
           id="path1173"
           d="m 170.79339,98.881699 c -0.0697,-2.100194 0.0985,-4.19272 0.25713,-6.284241 0,0 -1.31113,-8.75547 -1.31113,-8.75547 v 0 c -0.19078,2.043764 -0.41372,4.09184 -0.35421,6.14866 0,0 1.40821,8.891051 1.40821,8.891051 z" />
        <path
           style="opacity:0.995;fill:#000000;fill-opacity:1;stroke:none;stroke-width:0.264999;stroke-miterlimit:4;stroke-dasharray:none;stroke-opacity:1"
           id="path1175"
           d="m 163.47826,102.59052 c 1.13086,-2.42813 2.44344,-4.764234 3.73549,-7.108236 0,0 -0.93094,-8.73729 -0.93094,-8.73729 v 0 c -1.29472,2.288238 -2.62457,4.561012 -3.7973,6.915507 0,0 0.99275,8.930019 0.99275,8.930019 z" />
        <path
           style="opacity:0.995;fill:#000000;fill-opacity:1;stroke:none;stroke-width:0.264999;stroke-miterlimit:4;stroke-dasharray:none;stroke-opacity:1"
           id="path1177"
           d="m 169.41193,100.6086 c 2.35856,-4.212476 3.09933,-9.024922 3.96434,-13.706491 0.17861,-1.071496 0.35723,-2.14299 0.53584,-3.214486 0,0 -1.23439,-8.705647 -1.23439,-8.705647 v 0 c -0.17263,1.074092 -0.34525,2.148184 -0.51788,3.222276 -0.83062,4.569375 -1.46688,9.297747 -3.69361,13.445001 0,0 0.9457,8.959347 0.9457,8.959347 z" />
        <path
           style="opacity:0.995;fill:#000000;fill-opacity:1;stroke:none;stroke-width:0.264999;stroke-miterlimit:4;stroke-dasharray:none;stroke-opacity:1"
           id="path1179"
           d="m 173.92055,98.632408 c 2.67734,-1.47157 5.51133,-2.617089 8.40602,-3.580479 3.04968,-0.984581 6.22715,-1.47751 9.37302,-2.046862 0,0 -0.16296,-8.916579 -0.16296,-8.916579 v 0 c -3.18008,0.599802 -6.39319,1.097137 -9.4938,2.043609 -2.96836,0.966505 -5.83163,2.164517 -8.6521,3.500189 0,0 0.52982,9.000122 0.52982,9.000122 z" />
        <path
           style="opacity:0.995;fill:#000000;fill-opacity:1;stroke:none;stroke-width:0.264999;stroke-miterlimit:4;stroke-dasharray:none;stroke-opacity:1"
           id="path1181"
           d="m 179.03773,103.53843 c 2.95331,0.0314 5.89123,-0.28772 8.83369,-0.49621 1.43837,-0.10061 2.87922,-0.15353 4.31998,-0.20403 0,0 -0.0353,-8.958659 -0.0353,-8.958659 v 0 c -1.45008,0.06346 -2.90005,0.1304 -4.3484,0.227068 -2.91892,0.210103 -5.8395,0.549498 -8.76997,0.414494 0,0 0,9.017337 0,9.017337 z" />
        <path
           style="opacity:0.995;fill:#000000;fill-opacity:1;stroke:none;stroke-width:0.264999;stroke-miterlimit:4;stroke-dasharray:none;stroke-opacity:1"
           id="path1183"
           d="m 149.24436,100.80302 c -2.94549,-1.837086 -5.60539,-4.041536 -7.98992,-6.557901 -2.01188,-2.026211 -3.76117,-4.269599 -5.35901,-6.628463 0,0 -0.85524,8.868087 -0.85524,8.868087 v 0 c 1.68075,2.338261 3.49083,4.574267 5.49945,6.642807 2.46777,2.51043 5.21598,4.67344 8.12634,6.651 0,0 0.57838,-8.97553 0.57838,-8.97553 z" />
        <path
           style="opacity:0.995;fill:#000000;fill-opacity:1;stroke:none;stroke-width:0.264999;stroke-miterlimit:4;stroke-dasharray:none;stroke-opacity:1"
           id="path1185"
           d="m 157.76426,109.95797 c -3.42296,-4.14666 -5.57422,-9.09549 -7.64752,-14.006989 0,0 -1.02366,8.746329 -1.02366,8.746329 v 0 c 2.18384,4.99741 4.39151,10.12294 8.04565,14.24999 0,0 0.62553,-8.98933 0.62553,-8.98933 z" />
        <path
           style="opacity:0.995;fill:#000000;fill-opacity:1;stroke:none;stroke-width:0.264999;stroke-miterlimit:4;stroke-dasharray:none;stroke-opacity:1"
           id="path1187"
           d="m 147.82524,119.54442 c -0.3595,-1.12475 -0.89812,-2.8209 -1.24263,-3.83137 -1.28958,-3.78249 -1.52954,-4.13852 -2.79482,-8.33206 -1.42775,-4.73202 -1.70812,-6.15758 -2.8798,-10.954225 0,0 -1.13773,8.511895 -1.13773,8.511895 v 0 c 1.2519,5.01824 1.44465,6.0367 2.93215,11.00798 1.25483,4.1937 2.80265,8.29554 3.93207,12.52643 0,0 1.19076,-8.92865 1.19076,-8.92865 z" />
        <path
           style="opacity:0.995;fill:#000000;fill-opacity:1;stroke:none;stroke-width:0.264999;stroke-miterlimit:4;stroke-dasharray:none;stroke-opacity:1"
           id="path1189"
           d="m 138.23768,128.51751 c -3.25136,-5.40286 -4.59639,-11.59703 -5.72285,-17.72364 -0.14237,-0.94714 -0.28474,-1.89429 -0.42712,-2.84143 0,0 -1.24481,8.73884 -1.24481,8.73884 v 0 c 0.15356,0.93607 0.30711,1.87215 0.46066,2.80822 1.22786,6.22318 2.72452,12.47889 6.05222,17.96248 0,0 0.8819,-8.94447 0.8819,-8.94447 z" />
        <path
           style="opacity:0.995;fill:#000000;fill-opacity:1;stroke:none;stroke-width:0.264999;stroke-miterlimit:4;stroke-dasharray:none;stroke-opacity:1"
           id="path1191"
           d="m 141.93805,119.96339 c -1.03639,-6.57524 -3.32153,-12.85157 -5.59763,-19.07764 -0.45266,-1.119806 -0.90532,-2.23961 -1.35798,-3.359414 0,0 -1.03941,8.701164 -1.03941,8.701164 v 0 c 0.44389,1.11274 0.88777,2.22547 1.33166,3.33821 2.27145,6.26706 4.54834,12.61972 5.3326,19.27689 0,0 1.33076,-8.87921 1.33076,-8.87921 z" />
        <path
           style="opacity:0.995;fill:#000000;fill-opacity:1;stroke:none;stroke-width:0.264999;stroke-miterlimit:4;stroke-dasharray:none;stroke-opacity:1"
           id="path1193"
           d="m 143.58031,118.72494 c 0.19008,-7.79787 -0.12058,-15.56309 -0.7204,-23.330029 0,0 -1.31102,8.706199 -1.31102,8.706199 v 0 c 0.15745,2.08749 0.32641,4.18103 0.43949,6.2716 0.051,0.94247 0.0693,3.77155 0.11921,2.82902 0.64941,-12.27451 -0.13021,-6.24799 0.0621,-3.3831 0,0 1.41062,8.90631 1.41062,8.90631 z" />
        <path
           style="opacity:0.995;fill:#000000;fill-opacity:1;stroke:none;stroke-width:0.264999;stroke-miterlimit:4;stroke-dasharray:none;stroke-opacity:1"
           id="path1195"
           d="m 151.64352,101.72984 c -0.84138,-3.67493 -1.77884,-7.31884 -2.77139,-10.956385 0,0 -1.1477,8.744752 -1.1477,8.744752 v 0 c 0.99702,3.670453 1.95175,7.350093 2.6513,11.091373 0,0 1.26779,-8.87974 1.26779,-8.87974 z" />
        <path
           style="opacity:0.995;fill:#000000;fill-opacity:1;stroke:none;stroke-width:0.264999;stroke-miterlimit:4;stroke-dasharray:none;stroke-opacity:1"
           id="path1197"
           d="m 154.25853,115.58312 c -2.24157,-5.14651 -3.60537,-10.64009 -5.00096,-16.064233 -0.20872,-0.883515 -0.41744,-1.767031 -0.62616,-2.650546 0,0 -1.17551,8.761339 -1.17551,8.761339 v 0 c 0.21555,0.87255 0.43111,1.7451 0.64666,2.61764 1.45265,5.49354 2.83976,11.06325 5.16323,16.26582 0,0 0.99274,-8.93002 0.99274,-8.93002 z" />
        <path
           style="opacity:0.995;fill:#000000;fill-opacity:1;stroke:none;stroke-width:0.264999;stroke-miterlimit:4;stroke-dasharray:none;stroke-opacity:1"
           id="path1199"
           d="m 160.13577,99.120273 c -3.67287,-4.734827 -6.81016,-9.868796 -10.02355,-14.921428 0,0 -0.87912,8.740815 -0.87912,8.740815 v 0 c 3.2711,5.099497 6.46786,10.26088 10.06984,15.13612 0,0 0.83283,-8.955507 0.83283,-8.955507 z" />
        <path
           style="opacity:0.995;fill:#000000;fill-opacity:1;stroke:none;stroke-width:0.264999;stroke-miterlimit:4;stroke-dasharray:none;stroke-opacity:1"
           id="path1201"
           d="m 133.18324,140.70181 c -0.24787,-0.53165 -1.22311,-2.62851 -1.39625,-2.97354 -1.47648,-2.94227 -0.98239,-1.59773 -2.48876,-5.07917 -0.75923,-1.75472 -1.91615,-4.80161 -2.60738,-6.59093 -0.35647,-0.98859 -0.71293,-1.97718 -1.0694,-2.96577 0,0 -1.07123,8.73746 -1.07123,8.73746 v 0 c 0.36359,0.97872 0.72718,1.95745 1.09077,2.93618 1.98004,5.05646 4.15055,10.01082 6.5476,14.88296 0,0 0.99465,-8.94719 0.99465,-8.94719 z" />
        <path
           style="opacity:0.995;fill:#000000;fill-opacity:1;stroke:none;stroke-width:0.264999;stroke-miterlimit:4;stroke-dasharray:none;stroke-opacity:1"
           id="path1203"
           d="m 124.9393,153.12755 c -2.35106,-7.42188 -4.11583,-15.02033 -6.00469,-22.57029 -1.38179,-5.43243 -0.72279,-2.80997 -1.98007,-7.8666 0,0 -1.15558,8.67548 -1.15558,8.67548 v 0 c 1.2728,4.99485 0.60973,2.39921 1.98995,7.78673 1.92134,7.64295 3.71805,15.32688 6.01268,22.86853 0,0 1.13771,-8.89385 1.13771,-8.89385 z" />
        <path
           style="opacity:0.995;fill:#000000;fill-opacity:1;stroke:none;stroke-width:0.264999;stroke-miterlimit:4;stroke-dasharray:none;stroke-opacity:1"
           id="path1205"
           d="m 123.22234,140.08722 c 1.08776,-13.14837 -1.1293,-26.14713 -2.83796,-39.12423 0,0 -1.22162,8.42806 -1.22162,8.42806 v 0 c 0.8619,6.50199 1.80588,13.00641 2.41383,19.53882 0.15953,1.71428 -1.35141,5.18538 0.36995,5.1518 1.71988,-0.0335 0.0981,-3.4404 0.0624,-5.16023 -0.0159,-0.76593 -0.0813,1.53003 -0.12191,2.29505 0,0 1.33526,8.87073 1.33526,8.87073 z" />
        <path
           style="opacity:0.995;fill:#000000;fill-opacity:1;stroke:none;stroke-width:0.264999;stroke-miterlimit:4;stroke-dasharray:none;stroke-opacity:1"
           id="path1207"
           d="m 132.99698,135.3559 c -0.12015,-3.43364 -0.0638,-6.87801 -0.36044,-10.30093 -0.0352,-0.4064 -1.61961,-4.26264 -1.66839,-4.37661 -1.13825,-2.65954 -2.49665,-5.16528 -3.91563,-7.68197 -1.92359,-3.07597 -0.94509,-1.61221 -2.92043,-4.40128 0,0 -0.84826,8.82075 -0.84826,8.82075 v 0 c 1.91468,2.75221 0.96483,1.30377 2.83291,4.35619 1.80275,3.27258 3.50604,6.5718 4.69986,10.12489 0.22344,0.66502 0.48948,2.71562 0.58764,2.02097 0.34842,-2.46569 0.12141,-4.97889 0.18211,-7.46833 0,0 1.41063,8.90632 1.41063,8.90632 z" />
        <path
           style="opacity:0.995;fill:#000000;fill-opacity:1;stroke:none;stroke-width:0.264999;stroke-miterlimit:4;stroke-dasharray:none;stroke-opacity:1"
           id="path1209"
           d="m 119.7136,139.94979 c -2.26318,-4.44086 -4.61001,-8.83815 -6.98052,-13.22246 0,0 -0.93994,8.7026 -0.93994,8.7026 v 0 c 2.3853,4.42769 4.79498,8.85778 6.83166,13.4592 0,0 1.0888,-8.93934 1.0888,-8.93934 z" />
        <path
           style="opacity:0.995;fill:#000000;fill-opacity:1;stroke:none;stroke-width:0.264999;stroke-miterlimit:4;stroke-dasharray:none;stroke-opacity:1"
           id="path1211"
           d="m 112.88983,149.86157 c -2.44245,-4.84894 -5.74334,-9.22242 -9.12977,-13.44647 -1.72606,-2.12788 -3.59017,-4.13053 -5.410751,-6.17511 0,0 -0.74582,8.89809 -0.74582,8.89809 v 0 c 1.825564,1.99264 3.647021,3.98689 5.366271,6.07362 3.37535,4.22756 6.68561,8.62164 8.87167,13.60126 0,0 1.0484,-8.95139 1.0484,-8.95139 z" />
        <path
           style="opacity:0.995;fill:#000000;fill-opacity:1;stroke:none;stroke-width:0.264999;stroke-miterlimit:4;stroke-dasharray:none;stroke-opacity:1"
           id="path1213"
           d="m 113.95172,154.32503 c -1.9195,-7.25947 -3.90353,-14.49963 -5.61855,-21.81095 -0.27337,-1.26703 -0.54674,-2.53406 -0.82011,-3.80108 0,0 -1.18029,8.66074 -1.18029,8.66074 v 0 c 0.28025,1.25204 0.56051,2.50408 0.84076,3.75612 1.77097,7.38435 3.87998,14.68762 5.47961,22.11022 0,0 1.29858,-8.91505 1.29858,-8.91505 z" />
        <path
           style="opacity:0.995;fill:#000000;fill-opacity:1;stroke:none;stroke-width:0.264999;stroke-miterlimit:4;stroke-dasharray:none;stroke-opacity:1"
           id="path1215"
           d="m 76.604116,240.57585 c -2.729201,-4.68559 -5.205318,-9.50657 -7.917029,-14.20354 -2.834495,-5.09024 -5.951453,-10.00826 -9.195025,-14.84454 0,0 -0.855369,8.72024 -0.855369,8.72024 v 0 c 3.243601,4.78919 6.34438,9.67173 9.138089,14.74052 2.67534,4.80191 5.224825,9.67455 7.780933,14.53871 0,0 1.048401,-8.95139 1.048401,-8.95139 z" />
        <path
           style="opacity:0.995;fill:#000000;fill-opacity:1;stroke:none;stroke-width:0.264999;stroke-miterlimit:4;stroke-dasharray:none;stroke-opacity:1"
           id="path1217"
           d="m 77.518201,225.27845 c -3.609433,-4.29143 -6.365931,-9.23067 -9.054338,-14.12939 0,0 -0.929976,8.7105 -0.929976,8.7105 v 0 c 2.788322,4.95637 5.62275,9.94643 9.227301,14.36529 0,0 0.757013,-8.9464 0.757013,-8.9464 z" />
        <path
           style="opacity:0.995;fill:#000000;fill-opacity:1;stroke:none;stroke-width:0.264999;stroke-miterlimit:4;stroke-dasharray:none;stroke-opacity:1"
           id="path1219"
           d="m 82.068624,235.87596 c -0.869955,-5.43703 -1.782223,-10.86787 -2.596108,-16.31417 -0.163441,-1.18938 -0.326882,-2.37876 -0.490323,-3.56815 0,0 -1.25087,8.67478 -1.25087,8.67478 v 0 c 0.167597,1.18193 0.335195,2.36385 0.502793,3.54577 0.836086,5.53214 1.686946,11.06363 2.621272,16.57981 0,0 1.213236,-8.91804 1.213236,-8.91804 z" />
        <path
           style="opacity:0.995;fill:#000000;fill-opacity:1;stroke:none;stroke-width:0.264999;stroke-miterlimit:4;stroke-dasharray:none;stroke-opacity:1"
           id="path1221"
           d="m 83.731967,229.49029 c -0.666642,-8.90727 -1.953927,-17.74825 -3.268684,-26.57789 0,0 -1.228971,8.58405 -1.228971,8.58405 v 0 c 1.345348,8.91755 2.603243,17.85681 3.162395,26.86458 0,0 1.33526,-8.87074 1.33526,-8.87074 z" />
        <path
           style="opacity:0.995;fill:#000000;fill-opacity:1;stroke:none;stroke-width:0.264999;stroke-miterlimit:4;stroke-dasharray:none;stroke-opacity:1"
           id="path1223"
           d="m 86.808388,224.60837 c -3.79935,-5.48079 -8.025132,-10.65507 -12.145055,-15.8959 -0.91604,-1.16186 -1.83208,-2.32372 -2.748121,-3.48558 0,0 -0.782606,8.65774 -0.782606,8.65774 v 0 c 0.915395,1.15309 1.83079,2.30619 2.746185,3.45929 4.147754,5.31689 8.35569,10.60418 12.096768,16.21996 0,0 0.832829,-8.95551 0.832829,-8.95551 z" />
        <path
           style="opacity:0.995;fill:#000000;fill-opacity:1;stroke:none;stroke-width:0.264999;stroke-miterlimit:4;stroke-dasharray:none;stroke-opacity:1"
           id="path1225"
           d="m 91.550854,205.12611 c -2.672088,-3.5143 -5.732542,-6.68816 -8.778632,-9.87324 0,0 -0.71556,8.85178 -0.71556,8.85178 v 0 c 3.047886,3.17327 6.138093,6.3325 8.60956,9.99366 0,0 0.884632,-8.9722 0.884632,-8.9722 z" />
        <path
           style="opacity:0.995;fill:#000000;fill-opacity:1;stroke:none;stroke-width:0.264999;stroke-miterlimit:4;stroke-dasharray:none;stroke-opacity:1"
           id="path1227"
           d="m 95.776168,190.08892 c -4.740439,-3.70412 -9.040982,-7.9298 -13.107657,-12.35168 -1.894176,-1.92863 -3.70554,-3.93528 -5.521862,-5.93648 0,0 -0.733224,8.85141 -0.733224,8.85141 v 0 c 1.828464,1.9561 3.663003,3.90659 5.535467,5.82086 4.168357,4.43711 8.534395,8.69102 13.201745,12.60522 0,0 0.625531,-8.98933 0.625531,-8.98933 z" />
        <path
           style="opacity:0.995;fill:#000000;fill-opacity:1;stroke:none;stroke-width:0.264999;stroke-miterlimit:4;stroke-dasharray:none;stroke-opacity:1"
           id="path1229"
           d="m 100.62228,177.15587 c -2.564293,-5.32258 -4.797339,-10.80249 -7.099357,-16.24282 -1.202224,-3.10858 -2.510277,-6.174 -3.774842,-9.25729 0,0 -1.037651,8.77882 -1.037651,8.77882 v 0 c 1.281404,3.03594 2.583514,6.06352 3.795112,9.12838 2.342795,5.54577 4.507767,11.19565 7.232108,16.56511 0,0 0.88463,-8.9722 0.88463,-8.9722 z" />
        <path
           style="opacity:0.995;fill:#000000;fill-opacity:1;stroke:none;stroke-width:0.264999;stroke-miterlimit:4;stroke-dasharray:none;stroke-opacity:1"
           id="path1231"
           d="m 104.01972,163.11942 c -4.385602,-5.8686 -8.85634,-11.67584 -13.316956,-17.48856 0,0 -0.796729,8.67536 -0.796729,8.67536 v 0 c 4.500308,5.85363 9.019024,11.70217 13.270305,17.73977 0,0 0.84338,-8.92657 0.84338,-8.92657 z" />
        <path
           style="opacity:0.995;fill:#000000;fill-opacity:1;stroke:none;stroke-width:0.264999;stroke-miterlimit:4;stroke-dasharray:none;stroke-opacity:1"
           id="path1233"
           d="m 106.53137,150.69538 c -3.30489,-4.4457 -6.18509,-9.18566 -9.065645,-13.91131 0,0 -0.898972,8.78082 -0.898972,8.78082 v 0 c 2.949464,4.77077 5.885297,9.56109 9.176197,14.10701 0,0 0.78842,-8.97652 0.78842,-8.97652 z" />
        <path
           style="opacity:0.995;fill:#000000;fill-opacity:1;stroke:none;stroke-width:0.264999;stroke-miterlimit:4;stroke-dasharray:none;stroke-opacity:1"
           id="path1235"
           d="m 114.02267,167.15599 c -4.78745,-5.63836 -8.041,-12.31024 -10.98582,-19.03693 -0.45975,-1.17652 -0.9195,-2.35304 -1.37925,-3.52956 0,0 -1.03964,8.68685 -1.03964,8.68685 v 0 c 0.4729,1.16077 0.9458,2.32154 1.4187,3.48231 3.07078,6.80565 6.45996,13.49674 11.15318,19.35284 0,0 0.83283,-8.95551 0.83283,-8.95551 z" />
        <path
           style="opacity:0.995;fill:#000000;fill-opacity:1;stroke:none;stroke-width:0.264999;stroke-miterlimit:4;stroke-dasharray:none;stroke-opacity:1"
           id="path1237"
           d="m 101.72338,170.10811 c -0.81439,-2.79634 -1.736961,-5.55559 -2.65206,-8.32056 0,0 -1.10576,8.78752 -1.10576,8.78752 v 0 c 0.921367,2.79461 1.85061,5.5888 2.54459,8.45107 0,0 1.21323,-8.91803 1.21323,-8.91803 z" />
        <path
           style="opacity:0.995;fill:#000000;fill-opacity:1;stroke:none;stroke-width:0.264999;stroke-miterlimit:4;stroke-dasharray:none;stroke-opacity:1"
           id="path1239"
           d="m 96.141578,186.05896 c -0.299024,-0.47228 -0.57409,-0.96061 -0.897072,-1.41684 -1.219076,-1.72199 -2.542897,-3.36748 -3.797096,-5.06406 -2.490917,-3.36952 -4.883711,-6.801 -7.273102,-10.24278 -2.89342,-4.01591 -1.476375,-2.07924 -4.246116,-5.81366 0,0 -0.816038,8.74669 -0.816038,8.74669 v 0 c 2.759517,3.68385 1.349177,1.76862 4.224486,5.75049 2.413116,3.44251 4.826254,6.88204 7.290352,10.28834 0.851639,1.17728 2.835926,3.86548 3.695039,5.21445 0.304099,0.4775 0.549928,0.98971 0.824894,1.48456 0,0 0.994653,-8.94719 0.994653,-8.94719 z" />
        <path
           style="opacity:0.995;fill:#000000;fill-opacity:1;stroke:none;stroke-width:0.264999;stroke-miterlimit:4;stroke-dasharray:none;stroke-opacity:1"
           id="path1241"
           d="m 94.436127,196.05252 c -2.676379,-3.22052 -4.894344,-6.81816 -7.220214,-10.29997 -1.343512,-1.95608 -2.799562,-3.82398 -4.227399,-5.71691 0,0 -0.819168,8.92426 -0.819168,8.92426 v 0 c 1.437737,1.83449 2.854647,3.68244 4.179067,5.60189 2.363025,3.53329 4.612042,7.16799 7.299304,10.46725 0,0 0.78841,-8.97652 0.78841,-8.97652 z" />
        <path
           style="opacity:0.995;fill:#000000;fill-opacity:1;stroke:none;stroke-width:0.264999;stroke-miterlimit:4;stroke-dasharray:none;stroke-opacity:1"
           id="path1243"
           d="m 87.090064,205.62907 c -2.605231,-4.24512 -5.231366,-8.4537 -8.224184,-12.43826 -2.192679,-2.76961 -1.094449,-1.42452 -3.290679,-4.03852 0,0 -0.77271,8.82384 -0.77271,8.82384 v 0 c 2.163588,2.5904 1.081291,1.25811 3.243069,3.99998 2.954063,4.00705 5.635366,8.21111 8.010023,12.5886 0,0 1.034481,-8.93564 1.034481,-8.93564 z" />
        <path
           style="opacity:0.995;fill:#000000;fill-opacity:1;stroke:none;stroke-width:0.264999;stroke-miterlimit:4;stroke-dasharray:none;stroke-opacity:1"
           id="path1245"
           d="m 80.912109,213.18589 c -2.818683,-5.05914 -5.752706,-10.05458 -8.53925,-15.13181 -2.345814,-4.17445 -1.190606,-2.11522 -3.465861,-6.17755 0,0 -0.927727,8.7287 -0.927727,8.7287 v 0 c 2.279126,4.04314 1.125603,1.98861 3.459913,6.16396 2.832698,5.12274 5.771018,10.18824 8.518266,15.35774 0,0 0.954659,-8.94104 0.954659,-8.94104 z" />
        <path
           style="opacity:0.995;fill:#000000;fill-opacity:1;stroke:none;stroke-width:0.264999;stroke-miterlimit:4;stroke-dasharray:none;stroke-opacity:1"
           id="path1247"
           d="m 78.297827,228.98701 c -0.114937,-0.55532 -0.2575,-1.10563 -0.344815,-1.66597 -0.689949,-4.42763 -1.046372,-8.93182 -1.537415,-13.3822 -0.445931,-4.04152 -0.907306,-8.08133 -1.358521,-12.12226 0,0 -1.246053,8.48147 -1.246053,8.48147 v 0 c 1.043916,9.20069 1.812399,18.45223 3.255637,27.59691 0,0 1.231167,-8.90795 1.231167,-8.90795 z" />
        <path
           style="opacity:0.995;fill:#000000;fill-opacity:1;stroke:none;stroke-width:0.264999;stroke-miterlimit:4;stroke-dasharray:none;stroke-opacity:1"
           id="path1249"
           d="m 89.357921,196.55764 c -2.658517,-6.22355 -6.031719,-12.12394 -9.249555,-18.07089 -2.50721,-4.85583 -5.038794,-9.69869 -7.455006,-14.60059 0,0 -0.970838,8.73344 -0.970838,8.73344 v 0 c 2.459548,4.84766 4.990113,9.65859 7.494428,14.48323 3.23183,6.03081 6.589202,12.03347 9.14649,18.39045 0,0 1.034481,-8.93564 1.034481,-8.93564 z" />
        <path
           style="opacity:0.995;fill:#000000;fill-opacity:1;stroke:none;stroke-width:0.264999;stroke-miterlimit:4;stroke-dasharray:none;stroke-opacity:1"
           id="path1251"
           d="m 97.830877,167.66492 c -1.996371,-5.65381 -3.446426,-11.47392 -4.836239,-17.29977 -0.640535,-2.67808 -1.160447,-5.3812 -1.651985,-8.08958 0,0 -1.225425,8.79097 -1.225425,8.79097 v 0 c 0.520298,2.67537 1.065445,5.34578 1.709293,7.99484 1.421974,5.88963 2.98392,11.73954 4.835763,17.51053 0,0 1.168593,-8.90699 1.168593,-8.90699 z" />
        <path
           style="opacity:0.995;fill:#000000;fill-opacity:1;stroke:none;stroke-width:0.264999;stroke-miterlimit:4;stroke-dasharray:none;stroke-opacity:1"
           id="path1253"
           d="m 97.725009,177.31803 c -2.509951,-6.93304 -5.82481,-13.56547 -8.929902,-20.24977 0,0 -0.976635,8.56683 -0.976635,8.56683 v 0 c 3.148359,6.74895 6.493902,13.47225 8.768831,20.57678 0,0 1.137706,-8.89384 1.137706,-8.89384 z" />
        <path
           style="opacity:0.995;fill:#000000;fill-opacity:1;stroke:none;stroke-width:0.264999;stroke-miterlimit:4;stroke-dasharray:none;stroke-opacity:1"
           id="path1255"
           d="m 91.87037,179.34942 c -0.922634,-2.29288 -1.804961,-4.60197 -2.765462,-6.87932 0,0 -1.047504,8.85586 -1.047504,8.85586 v 0 c 0.938498,2.29815 1.877137,4.60433 2.651001,6.96343 0,0 1.161965,-8.93997 1.161965,-8.93997 z" />
        <path
           style="opacity:0.995;fill:#000000;fill-opacity:1;stroke:none;stroke-width:0.264999;stroke-miterlimit:4;stroke-dasharray:none;stroke-opacity:1"
           id="path1257"
           d="m 120.13851,155.2311 c -2.56865,-2.74259 -4.71343,-5.8632 -6.70346,-9.0423 -1.03588,-1.89106 -0.52146,-0.99255 -1.53556,-2.69994 0,0 -0.92467,8.90297 -0.92467,8.90297 v 0 c 1.00064,1.68519 0.47717,0.79907 1.56914,2.65913 2.07908,3.18744 4.28657,6.2988 6.80614,9.15665 0,0 0.78841,-8.97651 0.78841,-8.97651 z" />
        <path
           style="opacity:0.995;fill:#000000;fill-opacity:1;stroke:none;stroke-width:0.264999;stroke-miterlimit:4;stroke-dasharray:none;stroke-opacity:1"
           id="path1259"
           d="m 118.68703,146.74679 c -1.90346,-3.19003 -3.7958,-6.38658 -5.71888,-9.5652 -0.9007,-1.60002 -1.74335,-3.23081 -2.62205,-4.84287 0,0 -0.95465,8.86976 -0.95465,8.86976 v 0 c 0.8797,1.61723 1.73232,3.24967 2.66451,4.83773 1.9447,3.19583 3.84163,6.41904 5.7218,9.65305 0,0 0.90927,-8.95247 0.90927,-8.95247 z" />
        <path
           style="opacity:0.995;fill:#000000;fill-opacity:1;stroke:none;stroke-width:0.264999;stroke-miterlimit:4;stroke-dasharray:none;stroke-opacity:1"
           id="path1261"
           d="m 130.80497,138.3466 c -1.85147,-4.49367 -3.92692,-8.89336 -6.16948,-13.20424 -1.05566,-1.83274 -1.76526,-3.82526 -2.67141,-5.72714 0,0 -1.01481,8.91614 -1.01481,8.91614 v 0 c 0.86903,1.89429 1.69668,3.80821 2.71912,5.62826 2.25046,4.35466 4.27535,8.81276 6.18191,13.32803 0,0 0.95467,-8.94105 0.95467,-8.94105 z" />
      </g>
    </g>
    <path
       style="fill:#ff0000;fill-opacity:1;stroke:#000000;stroke-width:0.264583px;stroke-linecap:butt;stroke-linejoin:miter;stroke-opacity:1"
       d="m -148.92262,229.05356 c 0,0 -50.64881,-43.08928 -38.55357,-80.13095 12.09524,-37.04166 36.28571,-0.75595 36.28571,-0.75595 0,0 16.63096,-36.28571 31.75,-1.5119 15.11905,34.77381 -29.48214,82.3988 -29.48214,82.3988 z"
       id="path1898"
       inkscape:export-xdpi="33.248539"
       inkscape:export-ydpi="33.248539" />
    <path
       id="path1900"
       d="m -49.892858,426.35713 c 0,0 -50.648812,-43.08928 -38.553573,-80.13095 12.095239,-37.04166 36.285713,-0.75595 36.285713,-0.75595 0,0 16.63096,-36.28571 31.75,-1.5119 15.11905,34.77381 -29.48214,82.3988 -29.48214,82.3988 z"
       style="fill:#006600;fill-opacity:1;stroke:#000000;stroke-width:0.264583px;stroke-linecap:butt;stroke-linejoin:miter;stroke-opacity:1"
       inkscape:export-xdpi="33.248539"
       inkscape:export-ydpi="33.248539" />
    <path
       style="fill:#ffd700;fill-opacity:1;stroke:#000000;stroke-width:0.264583px;stroke-linecap:butt;stroke-linejoin:miter;stroke-opacity:1"
       d="m 383.26786,368.90476 c 0,0 -50.64881,-43.08928 -38.55358,-80.13095 C 356.80952,251.73215 381,288.01786 381,288.01786 c 0,0 16.63096,-36.28571 31.75,-1.5119 15.11905,34.77381 -29.48214,82.3988 -29.48214,82.3988 z"
       id="path1902"
       inkscape:export-xdpi="33.248539"
       inkscape:export-ydpi="33.248539" />
    <path
       id="path1904"
       d="m 497.41667,194.27975 c 0,0 -50.64881,-43.08928 -38.55357,-80.13095 12.09523,-37.041655 36.28571,-0.75595 36.28571,-0.75595 0,0 16.63096,-36.285705 31.75,-1.5119 15.11905,34.77381 -29.48214,82.3988 -29.48214,82.3988 z"
       style="fill:#ff7f2a;fill-opacity:1;stroke:#000000;stroke-width:0.264583px;stroke-linecap:butt;stroke-linejoin:miter;stroke-opacity:1"
       inkscape:export-xdpi="33.248539"
       inkscape:export-ydpi="33.248539" />
    <rect
       transform="scale(-1,1)"
       inkscape:export-filename="C:\Users\leahk\Source\Repos\tempest-hopp-git\FarmVerticalShooter\Assets\Sprites\walkFullL.png"
       inkscape:export-ydpi="25.4"
       inkscape:export-xdpi="25.4"
       rx="23.422644"
       y="94.830078"
       x="-381.25"
       height="127.41991"
       width="127.41991"
       id="rect957"
       style="opacity:0.995;fill:#ffffff;fill-opacity:1;stroke:#000000;stroke-width:0.580092;stroke-opacity:1" />
    <rect
       transform="scale(-1,1)"
       inkscape:export-filename="C:\Users\leahk\Source\Repos\tempest-hopp-git\FarmVerticalShooter\Assets\Sprites\idleFrontL.png"
       inkscape:export-ydpi="25.4"
       inkscape:export-xdpi="25.4"
       style="opacity:0.995;fill:#000000;fill-opacity:1;stroke-width:0.145683"
       id="rect959"
       width="32"
       height="32"
       x="-359.83334"
       y="116.16666"
       rx="5.882319" />
    <rect
       inkscape:export-filename="C:\Users\leahk\Source\Repos\tempest-hopp-git\FarmVerticalShooter\Assets\Sprites\walkStartL.png"
       rx="5.882319"
       y="116.41666"
       x="285.5"
       height="32"
       width="32"
       id="rect963"
       style="opacity:0.995;fill:#000000;fill-opacity:1;stroke-width:0.145683"
       inkscape:export-xdpi="25.4"
       inkscape:export-ydpi="25.4" />
    <g
       id="g978"
       transform="translate(65.574193,-235.61979)">
      <path
         inkscape:export-ydpi="25"
         inkscape:export-xdpi="25"
         id="path967"
         d="m 95.249999,137.58333 -31.75,84.66667 52.916671,-84.66667 z"
         style="fill:#ffffff;fill-opacity:1;fill-rule:nonzero;stroke:#000000;stroke-width:0.264583px;stroke-linecap:butt;stroke-linejoin:miter;stroke-opacity:1" />
      <path
         inkscape:export-ydpi="25"
         inkscape:export-xdpi="25"
         d="m 96.258876,130.96276 c -0.5046,-1.39209 -1.070126,-2.80543 -1.30388,-4.27728 -0.05008,-0.31532 -0.04617,-0.63688 -0.06925,-0.95532 0.04569,2.64982 0.09138,5.29964 0.13707,7.94947 0.480907,-1.56218 1.507178,-3.04326 2.736419,-4.12188 1.468258,-1.26047 3.149805,-2.22504 4.775145,-3.26349 1.93122,-1.23103 3.98132,-2.2524 6.01054,-3.30885 1.56496,-0.62028 2.99188,-1.4766 4.33219,-2.48467 1.14631,-0.9103 2.08293,-2.01253 2.87965,-3.23298 1.15096,-1.70307 1.9247,-3.54371 2.39861,-5.53495 0.38795,-2.09783 0.45157,-4.23556 0.4884,-6.363 0.002,-0.31908 0.006,-0.63816 0.006,-0.95725 0.002,-3.27717 10e-4,-6.554346 2.6e-4,-9.83152 -2.1e-4,-0.620192 -0.005,-1.240375 -0.007,-1.860561 -5.3e-4,-0.189891 -8e-4,-0.759561 -0.002,-0.569674 -0.0198,2.895068 -0.0355,5.790162 -0.0533,8.685245 -0.99976,-0.003 -0.43479,0.61908 -0.11336,1.10259 0.28054,0.422 0.31845,0.58362 0.5104,1.05425 0.62501,1.02515 1.37701,1.9103 1.72478,3.07538 0.32413,1.44349 0.22174,2.92655 0.43824,4.38213 0.1219,1.80708 0.56496,3.52629 0.98331,5.27584 0.64771,1.14446 0.91153,2.38427 1.04721,3.67567 0.54325,1.29949 0.6618,2.68455 0.7626,4.07265 0.0987,1.74214 0.0925,3.48806 0.0948,5.23236 -0.002,4.22941 0.004,-4.96843 -0.0385,-7.29085 -0.004,-0.22991 -0.0562,0.45679 -0.0996,0.68261 -0.13436,0.70009 -0.39217,1.34521 -0.65719,2.00319 -0.63142,1.47201 -1.47107,2.83811 -2.22863,4.24655 -0.82456,1.00831 -1.64052,2.05618 -2.54,3.00371 -0.80175,0.79125 -1.38519,1.67319 -2.44617,2.12165 -1.47559,0.40036 -3.03163,0.36558 -4.54956,0.38186 -1.73249,0.005 -3.46498,-8e-4 -5.19746,-0.008 -1.61274,-0.007 -3.2255,-0.01 -4.83826,-0.0111 -1.511506,0.002 -2.994448,-0.36702 -4.492474,-0.54816 -0.755772,-0.0577 -1.498983,-0.11726 -2.245259,-0.24909 0,0 -0.149527,9.00475 -0.149527,9.00475 v 0 c 0.760365,0.12128 1.517211,0.19166 2.285045,0.2501 1.532832,0.19014 3.052397,0.56551 4.601845,0.548 1.61198,-1.7e-4 3.22396,-5.3e-4 4.83594,0.002 1.73674,0.003 3.47345,0.0193 5.21019,0.0115 1.62196,-0.0188 3.27185,-2.7e-4 4.86025,-0.36661 1.25093,-0.41516 2.02424,-1.09635 2.79526,-2.14302 1.07679,-0.88118 1.72325,-2.14996 2.80961,-3.03992 0.84918,-1.36509 1.56939,-2.83181 2.31503,-4.25505 2.09217,-4.08074 1.37044,-8.64689 1.17348,-13.22913 -0.0103,-1.75116 -0.0122,-3.50575 -0.17244,-5.25114 -0.15586,-1.3933 -0.47643,-2.73333 -0.80756,-4.09129 -0.23694,-1.27898 -0.70479,-2.46025 -1.13425,-3.68171 -0.43546,-1.72446 -0.69213,-3.47098 -0.8714,-5.24117 -0.11556,-1.49344 -0.10474,-3.029794 -0.66623,-4.443581 -0.51744,-1.076204 -1.28254,-1.999314 -1.79425,-3.081499 -0.59519,-1.070145 -1.09296,-2.380517 -2.53043,-2.173095 -0.0762,3.068678 -0.15799,6.137217 -0.22857,9.206025 -0.0106,0.45861 0.007,0.91744 0.008,1.37617 0.001,0.34003 0.001,1.36013 0.002,1.0201 0.002,-4.977456 0.002,-10.962783 0.002,-6.97497 -0.0111,2.120839 -0.0435,4.24709 -0.31646,6.35357 -0.33819,1.97357 -0.9391,3.81547 -2.0991,5.4736 -0.67237,1.22647 -1.5065,2.24477 -2.53163,3.19189 -1.31666,0.97442 -2.60436,1.97379 -4.1843,2.51027 -2.05682,1.06265 -4.1222,2.11068 -6.09134,3.32965 -1.64001,1.05264 -3.382893,1.95828 -4.864152,3.23109 -1.489449,1.06326 -2.475384,2.64774 -3.404069,4.20431 -0.121764,7.37523 -0.950801,9.47091 1.454616,15.13418 0,0 1.048401,-8.95139 1.048401,-8.95139 z"
         id="path987"
         style="opacity:0.995;fill:#000002;fill-opacity:1;fill-rule:nonzero;stroke:#000000;stroke-width:0.264999;stroke-opacity:1" />
      <path
         inkscape:export-ydpi="25"
         inkscape:export-xdpi="25"
         d="m 119.04034,112.4482 c 0.34849,2.40068 1.24867,4.63947 1.97771,6.93547 0.74428,1.64128 1.19555,3.35865 1.40066,5.14267 0.2221,3.15897 0.29078,8.00769 0.0386,-6.72685 -0.003,-0.17476 -0.033,0.35024 -0.0828,0.51779 -0.1068,0.35943 -0.15916,0.36518 -0.38567,0.58308 -0.64586,-0.17509 -0.86475,-2.25149 -0.94987,-2.8422 -0.02,-1.58999 -0.31308,-3.12342 -0.57262,-4.68479 -0.086,-0.22973 -0.15306,-0.46745 -0.2579,-0.6892 -0.25197,-0.43626 -0.4911,-0.82775 -0.70446,-1.28441 -0.3211,-0.68728 -0.46663,-1.41448 -0.75907,-2.11538 -0.21699,-0.68492 -0.55436,-1.38973 -0.606,-2.11864 -0.0187,-0.26451 0.0396,-1.05953 0.0426,-0.79437 0.0879,7.78175 -0.24148,10.63565 0.13047,7.06192 1.11104,-5.25778 0.59163,-1.7808 -0.52698,-11.33432 -0.15507,2.34389 -0.48587,4.67191 -0.75573,7.00441 -0.29745,2.77188 -0.44862,5.5559 -0.52588,8.34168 0.0915,2.33784 -0.31717,4.5792 -1.26815,6.70884 0.6797,0.0329 -2.34738,2.29557 -2.13836,1.44474 0.0467,-0.1901 0.28333,-0.27019 0.425,-0.40528 0.0417,14.08977 -0.86979,9.67866 0.79322,6.65465 0.5645,-1.0265 1.2353,-1.96935 1.9355,-2.90547 1.22963,-1.37495 2.55944,-2.67055 3.63936,-4.17109 0.78908,-1.2237 0.92217,-2.6501 1.00376,-4.06532 0.1031,-3.7087 0.0325,-7.42964 0.0308,-11.13286 -1.1e-4,-0.25127 -0.006,-1.00508 -0.005,-0.7538 0.03,8.46964 -0.37641,10.95965 0.12553,7.61657 0.78184,-3.64959 0.32442,-6.42585 0.3176,-10.85575 -0.001,-0.76008 -0.29894,-1.26628 -0.74898,-1.83937 -1.27311,-0.9633 -2.06406,-0.11173 -2.40629,1.14902 -1.03267,4.71443 -0.0522,9.41213 0.35016,14.08857 0.13432,1.93903 0.1644,3.88294 0.17974,5.82587 0.004,1.10711 0.003,0.55811 0.004,1.64698 -8e-5,0.26323 -1.9e-4,1.05291 -2.2e-4,0.78968 -0.002,-14.50247 0.001,-9.7212 -0.002,-6.59351 0.0742,1.35381 -0.11595,2.60406 -0.89527,3.72459 -4.05906,4.49967 -2.65566,0.0379 -1.27019,11.37489 1.31851,-0.24529 2.31332,-1.15228 3.38155,-1.8913 3.02486,-2.0718 1.12597,-0.65472 -0.18006,-9.27683 -0.028,-0.18467 -0.279,0.24889 -0.4087,0.38329 -0.0477,0.0494 -0.73375,0.84972 -0.74808,0.8664 -0.73494,1.04551 -1.90266,1.37797 -3.05122,1.77992 -1.81059,0.47975 -3.62555,0.94863 -5.45938,1.3355 -1.70795,0.33241 -3.43784,0.52431 -5.15669,0.78743 1.13351,10.41307 -1.17987,9.115 5.19375,9.07218 1.86616,0.1039 3.63531,-0.0315 5.42246,-0.57063 1.57044,-0.55934 2.92971,-1.53797 4.10063,-2.70667 0.97913,-0.95226 1.96046,-1.89169 2.77177,-2.99317 2.6127,-3.4743 1.19495,-8.39504 1.1601,-12.35176 -0.20845,-1.38369 -0.80785,-2.68452 -1.29152,-3.99274 -0.40458,-0.66849 -0.24285,-2.84541 -0.87808,-3.11839 -0.3626,0.0614 -0.76495,0.008 -1.08781,0.1842 -0.0702,0.0383 -0.12328,2.92382 -0.13945,3.25452 -0.24813,1.67906 -1.9261,2.40621 -3.28733,3.09143 -2.06755,1.15059 -4.31411,1.76535 -6.58381,2.36055 -1.81873,0.45025 -3.64104,0.97554 -5.32037,1.8167 -1.61392,0.82135 -2.22872,2.29514 -2.87539,3.87434 -1.38491,3.70938 -3.592545,10.52609 0.69623,12.32174 1.97241,0.58422 3.96973,0.27567 5.94685,-0.088 2.45166,-0.36966 4.76544,-1.17086 6.83388,-2.532 1.7878,-1.24648 2.49528,-2.96913 2.84437,-5.04063 0.41205,-3.94804 0.40871,-3.56707 0.0739,-10.77974 -0.0123,-0.26438 -0.224,-0.51868 -0.4523,-0.65256 -1.085,-0.63629 -2.52983,-0.0371 -3.59506,0.26919 -2.01572,0.68365 -3.60845,2.05058 -5.12668,3.48555 -1.04176,1.0191 -2.03261,2.06264 -3.19986,2.9408 -1.11904,0.78434 -2.21253,1.52983 -3.5331,1.91292 -1.38276,0.30361 -2.807033,0.30083 -4.215643,0.31464 -0.692232,-0.0463 -1.348126,-0.32892 -1.468577,-1.09507 -0.02315,-0.14722 0.02603,-0.59516 0.02906,-0.44615 0.05638,2.78413 0.08738,5.56873 0.131077,8.35309 0.417449,-1.88675 1.91742,-2.76379 3.620453,-3.33514 2.3287,-0.41393 4.66439,-0.75176 6.97951,-1.24951 1.81632,-0.61443 3.70263,-0.96278 5.54849,-1.45784 1.25116,-0.42906 2.51864,-0.9411 3.65041,-1.63402 1.03648,-0.83952 2.0242,-1.74038 2.9967,-2.65285 2.52128,-1.91621 0.58128,-0.35357 -0.89524,-8.88872 -0.0359,-0.20781 -0.21225,0.36482 -0.32956,0.54008 -0.60961,0.91075 -1.27737,1.78338 -1.94894,2.64846 -1.47233,1.66868 -2.84725,3.41784 -4.2391,5.15263 -0.9404,1.03107 -1.96455,1.9713 -3.20059,2.62842 -1.39047,0.52157 -2.84405,0.84808 -4.28042,1.21814 -1.52337,0.36839 -3.05313,0.84098 -4.16508,1.98969 -4.297594,7.35487 -1.879496,9.98714 2.92238,10.79469 1.9507,0.19687 3.91799,0.28149 5.87263,0.11937 2.03558,-0.35785 4.08804,-0.83201 5.83675,-1.97025 1.089,-0.72625 1.82109,-1.79058 2.44122,-2.91889 0.57558,-1.19623 1.00098,-2.45041 1.56149,-3.65341 0.84163,-1.29648 1.48677,-2.64611 1.8602,-4.14584 0,0 -1.2305,-8.92298 -1.2305,-8.92298 v 0 c -0.23384,1.49236 -0.6644,2.90236 -1.61553,4.10945 -0.65994,1.17426 -1.0612,2.42578 -1.60451,3.65002 -0.39593,1.09886 -1.07032,2.16323 -1.98476,2.89366 -1.48055,1.26244 -3.48411,1.58808 -5.33791,1.97896 -1.87599,0.15228 -3.771,0.0708 -5.64044,-0.14171 -0.50556,-0.0956 -0.93361,-0.14938 -1.41303,-0.34127 -0.17546,-0.0702 -0.35868,-0.14159 -0.50037,-0.26665 -0.0904,-0.0798 -0.16164,-0.44194 -0.16591,-0.32144 -0.10353,2.92445 -0.13861,11.69373 -0.12371,8.12276 0.52116,-1.35015 2.28211,-1.61743 3.51566,-1.98587 1.4927,-0.39127 3.00163,-0.70206 4.46256,-1.20555 1.39161,-0.63403 2.50996,-1.59406 3.58158,-2.67421 1.43929,-1.70277 2.70759,-3.55401 4.24474,-5.17783 1.63646,-1.94198 0.0242,0.03 1.41862,-1.83931 2.75137,-3.68854 1.06838,-0.42698 0.21723,-10.54755 -0.004,-0.0537 0.007,0.10748 0.0102,0.16121 -0.82705,0.98655 -1.92854,1.71463 -2.81521,2.64634 -0.96083,0.78047 -2.23601,1.13524 -3.35446,1.6309 -1.80547,0.56165 -3.70981,0.8134 -5.48737,1.49341 -2.33923,0.51298 -4.69695,0.86911 -7.06072,1.24152 -2.158235,0.6359 -3.481853,1.41505 -4.642133,3.38368 -0.0083,3.43619 -2.509208,10.59931 2.611588,11.12299 1.485453,-0.0134 2.983325,-0.0182 4.445805,-0.31171 1.45208,-0.3699 2.64881,-1.07667 3.8656,-1.9346 1.21474,-0.87519 2.30435,-1.83834 3.30629,-2.95044 1.44305,-1.34229 2.79653,-2.81098 4.70627,-3.50129 0.28426,-0.0862 1.53855,-0.51204 1.95184,-0.4915 0.55326,0.0275 0.47604,0.84427 0.477,0.80405 0.29288,-12.28651 0.18657,-10.17777 7.9e-4,-7.0036 -0.19288,1.93517 -0.48411,3.68193 -2.09921,4.97001 -1.91856,1.38956 -4.10751,2.18768 -6.45452,2.54073 -1.75808,0.32071 -3.60668,0.65861 -5.34041,0.0251 -2.26587,-1.7364 -0.19945,-11.32856 -0.48743,7.87436 -0.003,0.20935 -0.0943,-0.41324 -0.0847,-0.6224 0.0277,-0.60424 0.26536,-1.07071 0.47936,-1.62582 0.61518,-1.38605 0.87761,-2.95218 2.25669,-3.81416 1.60585,-0.85614 3.35699,-1.40994 5.12106,-1.84492 2.32054,-0.60674 4.63724,-1.19217 6.76163,-2.34709 1.56433,-0.73923 3.37649,-1.52403 4.17746,-3.15244 0.0582,-0.2889 0.25442,-3.12161 0.0971,-3.20078 -0.30923,-0.15565 -0.68685,-0.0874 -1.03027,-0.13111 -0.36199,0.0945 0.50265,2.60542 0.65169,3.03829 0.48658,1.27922 0.97171,2.58644 1.04685,3.96566 0.009,-2.7545 -0.0116,-5.50926 0.0279,-8.26348 0.003,-0.18643 0.0857,0.36677 0.0827,0.5532 -0.0125,0.76469 -0.35382,1.53306 -0.75538,2.16244 -0.85373,1.03899 -1.59824,2.15712 -2.68072,3.00139 -1.02538,1.13194 -2.21036,2.11336 -3.64328,2.68753 -1.69991,0.54075 -3.36689,0.6884 -5.15479,0.57138 -6.32879,-0.007 -4.08941,-1.61525 -4.27189,8.94103 -0.10963,-0.0132 -0.31074,0.0692 -0.32889,-0.0397 -0.005,-0.0315 0.39976,-0.11652 0.98601,-0.21409 1.25191,-0.20834 2.51343,-0.35605 3.75929,-0.60135 1.87425,-0.36483 3.72774,-0.80659 5.57532,-1.28222 1.27282,-0.42 2.64535,-0.76692 3.57074,-1.80055 0.1885,-0.2643 0.93571,-0.87268 0.93276,-1.21309 -0.086,-9.94841 2.05332,-11.08473 -0.93478,-8.7418 -0.96314,0.60463 -1.79182,1.40273 -2.83822,1.85945 0.038,2.99399 0.12976,5.98779 0.11391,8.98199 -7.9e-4,0.12641 -0.18678,-0.22055 -0.15964,-0.34402 0.1687,-0.76766 1.70931,-1.32597 2.09802,-2.00692 1.00128,-1.08534 1.59839,-2.28551 1.50219,-3.80554 0.005,-4.54224 0.026,-9.08463 -0.0132,-13.62673 -0.03,-1.94482 -0.0786,-3.89113 -0.25419,-5.82922 -0.0948,-0.92432 -0.22226,-1.84473 -0.31823,-2.76866 -0.0295,-0.28402 -0.067,-1.1391 -0.0723,-0.85359 -0.21943,11.7776 -0.16945,10.4654 -0.0299,7.35943 0.0285,-0.33546 0.0826,-0.66978 0.0848,-1.00644 0.002,-0.34707 -0.26282,-0.67542 0.12767,-0.10486 0.24292,0.67348 0.27001,2.59458 0.28033,1.77077 0.17911,-14.296332 0.5223,-10.07522 -0.14966,-6.97842 -0.86571,3.7424 -0.15744,0.47662 -0.28824,10.2107 -0.003,0.2512 0.002,1.00488 0.002,0.75366 0.009,-14.52 0.008,-9.7945 7.9e-4,-6.66747 -0.0236,1.34707 -0.0168,2.73461 -0.53229,4.00264 -0.88424,1.61075 -2.30869,2.8787 -3.54883,4.2116 -0.96373,1.19143 -1.78336,2.42245 -2.56915,3.73436 -0.16022,0.26749 -0.47921,0.48186 -0.49576,0.79322 -0.16983,3.19574 -0.0377,6.4004 -0.0566,9.6006 0.21124,0.16086 0.3901,0.37699 0.63371,0.48259 1.21694,0.52748 2.59588,-0.71187 3.27609,-1.53674 1.16559,-2.07394 1.74652,-4.39379 1.66144,-6.78055 0.0519,-2.79318 0.17024,-5.58548 0.44269,-8.36694 0.24615,-2.30625 0.56895,-4.60293 0.83159,-6.90616 -0.32845,-3.10547 -0.5421,-6.22525 -0.98536,-9.316426 -0.0336,-0.234545 -0.43474,0.265896 -0.51663,0.488246 -0.27652,0.75087 -0.35976,1.55859 -0.60337,2.31896 -1.05352,4.47052 -1.07406,9.40547 0.60691,13.69674 0.47931,1.37629 1.20975,2.64752 1.54454,4.06464 0.2678,1.55886 0.36263,3.127 0.59579,4.68945 0.3513,1.42153 0.8853,3.06625 2.65384,2.9453 3.75383,-1.58628 1.506,-8.56186 1.24132,-12.31065 -0.31533,-1.77413 -0.89932,-3.46004 -1.55594,-5.13571 -0.76935,-2.2934 -1.48492,-4.5884 -1.93958,-6.96938 0,0 -1.16197,8.93997 -1.16197,8.93997 z"
         id="path989"
         style="opacity:0.995;fill:#000000;fill-opacity:1;fill-rule:nonzero;stroke:#000000;stroke-width:0.264999;stroke-opacity:1" />
      <path
         inkscape:export-ydpi="25"
         inkscape:export-xdpi="25"
         d="m 119.04034,100.35296 c 0.57003,1.92865 1.29562,3.78874 1.68291,5.77129 0.22529,1.72185 0.22714,3.42892 0.5871,5.13 0.23175,1.42903 0.39107,2.83934 0.71795,4.24919 0.30844,1.67521 1.15941,3.13306 1.57035,4.78673 0.20801,1.66514 0.54851,3.29413 0.85086,4.94359 0.50157,3.1482 0.37572,7.97114 0.13186,-6.69465 -0.003,-0.2076 -0.0187,0.41693 -0.0635,0.61967 -0.12098,0.54682 -0.24109,0.59008 -0.59115,1.03655 -1.63738,1.30143 -3.68334,1.80121 -5.70999,2.1023 -2.13827,0.18102 -4.3049,0.34771 -6.44598,0.14133 -1.6511,-0.16467 -3.21332,-0.38702 -4.24835,-1.78436 -0.27841,-0.34019 -0.66596,-0.73251 -0.80441,-1.17554 -0.0449,-0.14364 -0.0185,-0.6016 -0.0169,-0.45113 0.0303,2.87187 0.002,5.74523 0.10314,8.61547 0.004,0.10315 0.10273,-0.19181 0.19273,-0.24233 0.17283,-0.097 0.37708,-0.12224 0.56562,-0.18336 2.24069,-0.2463 4.4654,-0.48932 6.65182,-1.06079 1.82902,-0.45752 3.55411,-1.21883 5.09241,-2.3053 1.14561,-0.92533 1.40786,-2.25408 1.55368,-3.64125 0.21009,-4.56939 0.0823,-9.14814 0.055,-13.72188 0.0249,-1.69399 -0.43002,-3.34336 -0.89824,-4.95586 -0.25041,-1.22524 -0.50021,-2.413732 -0.87953,-3.604045 0,0 -1.14721,8.941735 -1.14721,8.941735 v 0 c 0.34152,1.18394 0.50169,2.40845 0.86147,3.58871 0.43112,1.60281 0.71261,3.2491 0.66131,4.91529 0.017,3.15582 1e-4,8.25358 0.01,-6.28049 0.002,-2.39227 0.0439,4.65609 -0.009,2.20667 -0.0443,1.22178 -0.0266,2.54283 -0.80529,3.55645 -1.33716,1.17338 -3.03303,1.86214 -4.72923,2.34052 -2.17935,0.6013 -4.40796,0.81975 -6.65453,1.01126 -0.0619,0.0143 -1.52771,0.32011 -1.54165,0.45446 -0.65962,6.35888 -1.90692,7.73633 0.99809,10.96242 1.39963,1.26786 3.04687,1.6686 4.90905,1.79963 2.21161,0.18476 4.44305,0.0326 6.65079,-0.15386 2.21764,-0.29083 4.37703,-0.88988 6.28742,-2.095 3.62364,-2.93988 1.67613,-8.60467 1.06086,-12.85985 -0.32874,-1.64701 -0.52274,-3.31589 -0.92781,-4.94605 -0.50295,-1.60218 -1.28741,-3.10947 -1.51574,-4.79222 -0.28789,-1.40601 -0.37652,-2.84314 -0.6917,-4.24557 -0.27772,-1.6991 -0.21206,-3.437802 -0.61723,-5.119687 -0.48293,-1.964518 -1.23456,-3.840572 -1.73465,-5.800015 0,0 -1.16196,8.939972 -1.16196,8.939972 z"
         id="path993"
         style="opacity:0.995;fill:#ffffff;fill-opacity:1;fill-rule:nonzero;stroke:#000000;stroke-width:0.264999;stroke-opacity:1" />
      <path
         inkscape:export-ydpi="25"
         inkscape:export-xdpi="25"
         d="m 105.15515,126.78593 c 2.44779,-0.63316 4.96424,-0.90224 7.44128,-1.39302 1.75392,-0.2879 3.46636,-0.77226 5.023,-1.63781 1.1017,-0.74181 1.75129,-1.80861 2.32856,-2.96865 0.64509,-1.34924 0.75828,-2.83674 0.93617,-4.29702 0.3156,-1.50444 0.54327,-3.01945 0.66823,-4.5511 0.23021,-3.94228 0.0831,-7.91649 -0.0392,-11.84971 -0.0161,-0.516901 -0.20741,-0.477375 -0.57597,-0.616064 -0.27816,0.05661 -0.57719,0.04992 -0.83449,0.169809 -0.88887,0.414185 -1.01982,2.218785 -1.10971,3.016095 2.22228,2.1846 -1.03133,7.2309 0.32502,10.43612 0.4063,0.96013 0.96507,1.83322 1.34919,2.81461 0.78264,1.67744 1.58796,3.44799 1.56153,5.33001 -0.0144,-2.7369 -0.003,-5.47405 -0.0433,-8.21069 -0.003,-0.22108 -0.023,0.44321 -0.0667,0.65993 -0.16206,0.80269 -0.71237,1.30647 -1.29315,1.83159 -0.85646,0.45233 -1.60829,1.82627 -2.67144,1.75506 -0.79493,-0.85784 -0.84178,-2.4139 -0.94089,-3.53316 -0.32388,14.94905 -0.16854,7.51411 0.74883,3.67186 1.12248,-4.66786 1.38777,-5.48529 0.49507,-12.29437 -0.0422,-0.32154 -0.64851,-0.0101 -0.97276,-0.0151 -1.54271,0.29035 -2.62122,1.40945 -3.68097,2.47807 -0.85044,0.85413 -1.44956,1.91116 -2.17844,2.86445 -0.73103,0.91557 -1.71686,1.60927 -2.67594,2.27053 -1.26751,0.75829 -2.56021,1.46526 -3.81066,2.25702 -3.0936,2.3171 -1.29417,3.17176 -0.79093,9.95611 0.0269,0.36268 2.10552,0.32998 2.20816,0.32878 2.39133,-0.25948 4.58155,-1.29306 6.61157,-2.53086 1.42399,-0.75231 2.33833,-1.81102 2.93889,-3.27733 0.61956,-1.57137 1.19452,-3.1671 1.72042,-4.77317 0.44831,-1.3629 1.01282,-2.67869 1.58521,-3.99186 0.53398,-1.29381 0.63482,-2.69051 0.70505,-4.07171 1.17021,-4.94139 -0.25778,-8.845373 -0.62552,-13.40843 -0.0519,-1.445019 -0.40025,-2.678359 -2.06824,-2.305518 -0.14798,0.147018 -0.33976,0.260339 -0.44396,0.44105 -0.54849,0.951208 -0.45735,3.553438 -0.49022,4.682799 -0.0513,4.580199 -0.729,9.271769 1.19462,13.496709 0.88593,2.50724 1.09888,5.17883 1.67979,7.76081 0.67724,2.96972 1.23132,5.96497 1.5232,8.99766 0.37741,1.67912 0.66344,3.36885 0.79543,5.08463 0.051,1.00099 0.0303,0.50101 0.062,1.49992 0,0 1.36902,-8.90267 1.36902,-8.90267 v 0 c -0.0584,-1.00277 -0.0228,-0.50095 -0.10707,-1.50545 -0.19419,-1.69952 -0.55844,-3.36704 -0.81121,-5.05759 -0.36548,-3.01303 -0.96526,-5.98692 -1.61946,-8.94954 -0.51643,-2.63957 -0.80725,-5.35883 -1.82464,-7.86932 -1.21795,-3.480538 -1.19701,-10.639229 -0.8762,4.32279 0.0164,-1.01333 0.0377,-2.02546 0.0882,-3.03779 0.0258,-0.51765 0.12432,-1.0358 0.0846,-1.55257 -0.01,-0.13036 -0.0749,-0.25054 -0.11232,-0.375806 -0.0652,-0.04319 -0.1215,-0.104529 -0.19558,-0.129577 -0.12552,-0.04244 0.10569,0.243313 0.14878,0.368613 0.21517,0.62568 0.21386,1.28886 0.27997,1.93957 0.4005,3.56246 1.61765,11.11908 0.57151,-4.403623 -0.0286,1.347111 -0.0462,2.713523 -0.40484,4.022023 -0.47628,1.37012 -1.18491,2.64669 -1.6525,4.02547 -0.45036,1.61011 -1.10227,3.14351 -1.61569,4.73402 -0.70176,1.48565 -0.73533,2.41347 -2.41358,3.26545 -1.8268,1.24865 -3.87799,2.2393 -6.09779,2.49951 -0.33108,-0.005 -0.79973,0.0583 -1.1159,-0.14539 -0.0506,-0.0326 -0.0584,-0.23023 -0.0601,-0.17012 -0.51233,18.21778 -1.83253,10.12288 0.28591,8.02347 1.22488,-0.85087 2.53442,-1.53629 3.83805,-2.25537 1.01464,-0.7359 2.07181,-1.4033 2.9751,-2.27957 0.65349,-0.96847 1.38664,-1.88068 2.02212,-2.86117 0.93301,-0.8847 1.73048,-2.03946 3.0102,-2.43081 -2.77896,-1.08699 -0.0406,0.021 -0.0592,-8.6582 -5.2e-4,-0.20052 -0.0203,0.40211 -0.0608,0.59849 -0.16874,0.81767 -0.57531,1.57428 -0.63167,2.4186 -0.19903,0.87204 -0.48424,1.74112 -0.65183,2.61823 -0.72017,3.76902 0.44467,7.91998 -0.18667,11.52848 0.24883,1.47279 0.55515,3.22622 2.21538,3.66692 1.41814,0.002 2.24913,-0.97716 3.29948,-1.79181 4.11773,-2.97873 2.16688,-6.37688 2.13274,-12.18659 -0.32004,-1.87904 -1.052,-3.62808 -1.84125,-5.35504 -0.30809,-0.71547 -0.6983,-1.41163 -0.983,-2.1356 -1.06919,-2.71877 0.16599,-9.492867 -0.34781,6.71525 -0.0926,-0.90776 0.0814,-1.65274 0.26902,-2.53414 0.0248,-0.11662 0.12697,-0.25612 0.0575,-0.35304 -0.0888,-0.12393 -0.28485,-0.10872 -0.42727,-0.16308 -0.0473,0.0227 -0.13347,0.0164 -0.14187,0.0682 -0.0234,0.14397 0.0587,0.57922 0.0605,0.43337 0.18678,-15.095382 0.0686,-9.304291 -0.0114,-5.97495 -0.0774,1.52514 -0.21304,3.04918 -0.57418,4.53752 -0.3152,1.40644 -0.2017,2.88854 -0.71285,4.26044 -0.43925,1.09548 -0.93055,2.09941 -1.79522,2.92279 -1.38451,0.96617 -3.06649,1.35369 -4.70326,1.66723 -2.48458,0.51632 -5.00221,0.81902 -7.48227,1.35938 0,0 0.22064,9.005 0.22064,9.005 z"
         id="path995"
         style="opacity:0.995;fill:#ffffff;fill-opacity:1;fill-rule:nonzero;stroke:#ffffff;stroke-width:0.264999;stroke-opacity:1" />
    </g>
    <path
       inkscape:export-ydpi="30.106167"
       inkscape:export-xdpi="30.106167"
       id="path986"
       d="m 31.75,-137.58333 c -0.755952,-0.25199 -2.015874,-1.51191 -2.267857,-0.75596 -0.251984,0.75596 1.704403,1.31941 2.267857,0.75596 1.126908,-1.12691 0.627885,-3.20969 1.511906,-4.53572 0.279551,-0.41932 1.092576,0.27955 1.511903,0 0.468823,-0.31255 0.323096,-1.15119 0.755952,-1.5119 5.347343,-4.45612 17.000762,-7.24591 24.190482,-6.04762 7.08204,1.18034 16.78094,3.92975 21.92261,9.07143 0.17818,0.17818 -0.17818,0.57777 0,0.75595 0.39843,0.39842 1.17383,0.30519 1.51191,0.75595 0.4781,0.63748 0.27784,1.63038 0.75595,2.26786 0.33807,0.45076 1.19936,0.28713 1.5119,0.75595 0.54079,0.81118 0.35847,5.6111 0.75596,6.80357 1.62108,4.86325 0.86679,11.4302 0,16.63095 -0.26951,1.61704 0.40137,3.68619 0,5.29167 -0.13666,0.54663 -0.67627,0.95411 -0.75596,1.51191 -0.17817,1.24725 0.30558,2.55746 0,3.77976 -0.50211,2.00845 -3.27051,6.015921 -3.77976,9.071427 -0.44867,2.692037 -0.9032,2.85686 -1.5119,5.291666 -0.15959,0.638347 0.33042,2.362957 0,3.02381 -0.83573,1.671452 -0.46918,0.234587 -1.51191,0.755951 -1.1578,0.578901 -0.59116,1.347121 -1.5119,2.267858 -0.50297,0.50297 -1.00893,-0.502971 -1.5119,0 -0.17819,0.178181 0.22538,0.643263 0,0.755951 -0.45077,0.225383 -1.06115,-0.22538 -1.51191,0 -0.22538,0.112692 0.22538,0.643263 0,0.755955 -0.45076,0.22538 -1.04398,-0.187169 -1.51191,0 -1.60163,0.640651 -2.45374,1.604846 -3.77976,2.267857 -0.71664,0.35832 -8.87685,0.633682 -9.82738,0 -1.40821,-0.93881 -2.4974,-2.956502 -3.02381,-4.535715 -0.52092,-1.562759 -0.43985,-7.875624 0.75595,-9.07143 0.39843,-0.39842 1.17384,-0.305189 1.51191,-0.755951 0.88565,-1.18087 0.43387,-2.70173 1.51191,-3.779761 0.17817,-0.178181 0.57777,0.178178 0.75595,0 0.47951,-0.47951 -0.3147,-2.394413 0,-3.023809 0.15937,-0.318739 0.75595,-0.399595 0.75595,-0.755955 0,-0.251984 -0.50397,0 -0.75595,0 -1.51191,0 -3.02381,0 -4.53572,0 -2.00596,0 -1.90383,7.013483 -3.77976,9.827382 -0.13978,0.209664 -0.64326,-0.225383 -0.75595,0 -0.82351,1.64701 0.43308,5.071234 0,6.803572 -0.0864,0.345718 -0.64326,0.417881 -0.75595,0.755952 -0.76816,2.304457 0,6.806274 0,9.071427 0,2.977187 0.71973,6.94844 0,9.82738 -1.0574,4.22959 -6.756409,14.32772 -9.827386,16.63095 -0.403174,0.30239 -1.108728,-0.30238 -1.511903,0 -0.726834,0.54513 -0.966779,1.54103 -1.511906,2.26786 -1.848707,2.46495 -5.653556,2.26786 -8.315475,2.26786 -3.656145,0 -11.231838,1.07829 -12.851191,-3.77976 -0.332693,-0.99808 0,-2.70313 0,-3.77977 0,-1.66715 -0.530709,-4.45549 0,-6.04761 2.724229,-8.17269 9.827381,-17.826388 9.827381,-26.458337 0,-0.725583 0.576988,-3.958727 0,-4.535715 -0.18592,-0.18592 -6.391036,-1.168487 -6.803572,-0.755952 -1.084924,1.084924 -2.26082,7.552487 -3.779761,9.071428 -0.356359,0.356359 -1.007935,0 -1.511906,0 -2.251334,0 -1.805294,-0.293389 -3.023809,-1.511903 -1.564092,-1.564093 0.06114,2.39014 -1.511903,-0.755955 -0.285208,-0.570412 -1.185783,-9.72367 -0.755954,-10.583333 0.318738,-0.637474 1.193167,-0.874429 1.511906,-1.511903 0.225382,-0.450763 -0.225383,-1.061143 0,-1.511906 0.623289,-1.246576 1.689399,-2.622846 2.267857,-3.779761 0.251984,-0.503967 1.259919,-0.251984 1.511903,-0.755951 0.225383,-0.450766 -0.159366,-1.033799 0,-1.511909 0.674386,-2.02315 2.873166,-3.47847 3.779764,-5.29166 0.22538,-0.45077 -0.302382,-1.10873 0,-1.51191 1.747401,-2.32987 2.940698,-3.65509 4.535715,-6.04762 0.27955,-0.41932 -0.279554,-1.09258 0,-1.5119 0.395343,-0.59302 1.116557,-0.91889 1.511903,-1.51191 0.261318,-0.39197 0.451175,-1.96308 0.755952,-2.26785 0.398422,-0.39843 1.113483,-0.35753 1.511905,-0.75596 0.349449,-0.34945 -0.228211,-1.81143 0,-2.26785 0.812406,-1.62481 1.028438,-1.08994 1.511906,-3.02381 0.721657,-2.88664 1.286571,-0.30529 2.267855,-2.26786 0.225383,-0.45076 -0.356359,-1.15555 0,-1.51191 1.564092,-1.56409 -0.06114,2.39015 1.511906,-0.75595 0.225383,-0.45076 -0.225383,-1.06114 0,-1.5119 1.574686,-3.14937 2.015051,-2.77347 0,-6.80357 z"
       style="fill:#5fffff;fill-opacity:1;stroke:#ffffff;stroke-width:0.264583px;stroke-linecap:butt;stroke-linejoin:miter;stroke-opacity:1" />
    <path
       style="fill:#000000;fill-opacity:1;stroke:#000000;stroke-width:0.264583px;stroke-linecap:butt;stroke-linejoin:miter;stroke-opacity:1"
       d="m 275.16667,-158.75 c 3.45053,-1.13308 16.01524,-8.93119 19.65476,-5.29167 0.79684,0.79684 0.93211,2.05749 1.5119,3.02381 1.92542,3.20902 4.4786,5.26311 7.55953,6.80357 0.67614,0.33807 1.53447,-0.18334 2.26785,0 3.63451,0.90863 7.72119,-0.14857 11.33929,0.75595 3.10519,0.7763 3.56138,2.53665 6.04762,3.77976 0.45076,0.22539 1.09258,-0.27955 1.51191,0 0.46882,0.31255 0.4434,1.04309 0.75595,1.51191 0.39534,0.59302 1.19317,0.87443 1.5119,1.51191 0.65594,1.31186 0.25322,7.30261 0,8.31547 -0.0611,0.24446 -0.57777,-0.17818 -0.75595,0 -2.68251,2.68251 -3.07551,6.17198 -0.75595,9.07143 3.75572,4.69465 18.95472,12.26297 20.41071,16.63095 0.28628,0.85883 0,2.10534 0,3.02381 0,6.44938 -3.41022,4.16617 -6.80357,7.55952 -0.64243,0.64244 -0.78507,1.72274 -1.5119,2.26786 -0.40318,0.30238 -1.0338,-0.15937 -1.51191,0 -0.86192,0.28731 -1.45523,1.10559 -2.26786,1.51191 -1.0011,0.50055 -5.72087,0.55103 -5.29166,2.26785 3.09068,12.36275 21.70037,19.81351 6.04762,30.99405 -2.66579,1.90413 -7.13886,3.9474 -9.82738,5.29167 -0.81263,0.40631 -1.40594,1.2246 -2.26786,1.5119 -1.52988,0.50996 -13.59525,0.38392 -14.3631,0 -0.50397,-0.25198 -0.28713,-1.19936 -0.75595,-1.5119 -0.41933,-0.27956 -1.15555,0.35635 -1.51191,0 -0.35636,-0.35636 0.18717,-1.04398 0,-1.51191 -1.43008,-3.57521 -2.93969,-5.62705 -3.77976,-9.82738 -0.40059,-2.00298 -0.13293,-10.09325 -0.75595,-11.33928 -0.19124,-0.38248 -3.42039,-1.98903 -4.53572,-2.26786 -1.46676,-0.36669 -3.02381,0 -4.53571,0 -0.87479,0 -2.9875,-0.39613 -3.77976,0 -5.14513,2.57256 -6.10414,9.15621 -9.07143,13.60714 -2.32548,3.48822 -14.93012,4.01598 -18.89881,3.02381 -2.51405,-0.62851 -5.70005,-2.67625 -7.55952,-4.53571 -1.99317,-1.99317 -2.73378,-10.47781 -0.75596,-12.85119 2.99461,-3.59353 9.07143,-3.85986 9.07143,-9.07143 0,-3.13325 -0.27348,-3.45812 -3.02381,-5.29167 -2.2403,-1.49354 -4.57521,-3.05014 -6.80357,-4.53571 -4.2116,-2.80773 -6.752,-2.4339 -9.82738,-7.55953 -0.81994,-1.36657 -0.79918,-3.11027 -1.5119,-4.53571 -1.07495,-2.14989 -1.40203,-5.73119 -0.75595,-8.31548 0.88963,-3.55853 17.43083,-6.96355 20.41071,-7.55952 0.75679,-0.15136 3.96184,0.57387 4.53571,0 1.35457,-1.35457 -2.09843,-11.50871 -0.75595,-12.85119 1.56985,-1.56985 8.04676,-2.75509 9.07143,-3.77976 0.4932,-0.49321 -0.49321,-1.0187 0,-1.51191 1.56409,-1.56409 -0.0611,2.39014 1.5119,-0.75595 1.08499,-2.16997 -0.50783,-3.52004 0,-4.53571 0.11269,-0.22538 0.50397,0 0.75596,0 0,-1.00794 0,-2.01588 0,-3.02381 z"
       id="path975"
       inkscape:export-xdpi="30.273232"
       inkscape:export-ydpi="30.273232" />
    <path
       style="fill:#000000;fill-opacity:1;stroke:#000000;stroke-width:0.264583px;stroke-linecap:butt;stroke-linejoin:miter;stroke-opacity:1"
       d="m 275.16667,-127 c 0.50396,0.50396 1.00793,2.01587 1.5119,1.5119 0.50397,-0.50397 -2.14938,-1.83064 -1.5119,-1.5119 4.31202,-2.24172 3.35286,2.81035 5.29166,3.77976 2.29208,1.14604 4.1624,-0.37333 6.04762,1.5119 1.39952,1.39951 -1.3254,2.83731 -1.5119,3.02381 -0.17818,0.17818 0.22538,0.64326 0,0.75595 -0.59482,0.29741 -3.27575,-0.504 -3.77976,0 -0.17818,0.17818 0.17818,0.57778 0,0.75596 -0.29207,0.29206 -3.65361,0.12615 -3.77977,0 -2.12273,-2.12274 -2.26785,-5.50865 -2.26785,-9.82738 z"
       id="path977"
       inkscape:export-xdpi="30.273232"
       inkscape:export-ydpi="30.273232" />
    <path
       id="path979"
       d="m 306.91667,-127 c -0.50396,0.50396 -1.00793,2.01587 -1.5119,1.5119 -0.50397,-0.50397 2.14938,-1.83064 1.5119,-1.5119 -4.31202,-2.24172 -3.35286,2.81035 -5.29167,3.77976 -2.29208,1.14604 -4.16239,-0.37333 -6.04761,1.5119 -1.39952,1.39951 1.3254,2.83731 1.5119,3.02381 0.17818,0.17818 -0.22538,0.64326 0,0.75595 0.59482,0.29741 3.27575,-0.504 3.77976,0 0.17818,0.17818 -0.17818,0.57778 0,0.75596 0.29206,0.29206 3.65361,0.12615 3.77977,0 2.12273,-2.12274 2.26785,-5.50865 2.26785,-9.82738 z"
       style="fill:#000000;fill-opacity:1;stroke:#000000;stroke-width:0.264583px;stroke-linecap:butt;stroke-linejoin:miter;stroke-opacity:1"
       inkscape:export-xdpi="30.273232"
       inkscape:export-ydpi="30.273232" />
    <g
       transform="translate(-275.16667,-349.25)"
       id="g984">
      <path
         style="fill:#ffcd00;fill-opacity:1;stroke:#000000;stroke-width:0.264583px;stroke-linecap:butt;stroke-linejoin:miter;stroke-opacity:1"
         d="m 74.083332,137.58333 21.166667,74.08333 21.166671,-74.08333 z"
         id="path978"
         inkscape:export-filename="C:\Users\leahk\Source\Repos\tempest-hopp-git\HONGRY\Assets\Resources\Sprites\IceCream.png"
         inkscape:export-xdpi="30.106167"
         inkscape:export-ydpi="30.106167" />
      <path
         style="fill:#ff9aff;fill-opacity:1;stroke:#000000;stroke-width:0.264583px;stroke-linecap:butt;stroke-linejoin:miter;stroke-opacity:1"
         d="m 74.083332,127 c -1.670071,1.71779 -8.227702,-0.17555 -9.827381,3.02381 -2.544834,5.08967 5.331407,10.34459 8.315476,11.33928 2.014368,0.67146 5.381582,0 7.559524,0 1.542475,0 -0.03057,-0.75595 1.511905,-0.75595 1.024068,0 3.525158,4.78639 4.535715,5.29167 1.695583,0.84779 6.444779,0 8.315476,0 0.251984,0 0.577771,0.17818 0.755952,0 1.258443,-1.25844 -0.907354,-5.29167 2.267857,-5.29167 0.503968,0 1.155544,-0.35636 1.511904,0 1.76151,1.76151 0.489291,1.31945 1.51191,3.02381 0.97439,1.62399 4.49773,4.53571 6.04761,4.53571 0.50397,0 1.51191,0.50397 1.51191,0 0,-0.25198 -1.00794,0 -0.75595,0 3.17675,0 1.0093,-3.27715 2.26785,-4.53571 0.17818,-0.17818 0.64327,0.22538 0.75596,0 0.60536,-1.21073 -0.91343,-2.26786 0.75595,-2.26786 3.20938,0 7.15906,7.00381 10.58333,5.29167 2.42282,-1.21141 6.10089,-13.58051 1.51191,-15.875 -1.63699,-0.81849 -7.64501,-0.84144 -8.31548,-1.5119 -0.81962,-0.81962 0,-7.02593 0,-8.31548 0,-0.58557 -1.6675,-7.71512 -2.26786,-8.31548 -0.17818,-0.17818 -0.64326,0.22538 -0.75595,0 -0.47619,-0.95237 -0.31994,-3.99305 -2.26786,-5.29166 -0.41932,-0.27956 -1.06114,0.22538 -1.5119,0 -0.22538,-0.11269 0.22538,-0.64327 0,-0.75596 -0.14374,-0.0719 -4.04969,-1.34989 -4.53572,-1.5119 -1.58854,-0.52951 -3.661972,0.40742 -5.291662,0 -7.300283,-1.82507 -12.309139,-1.56903 -15.875,3.77976 -1.340519,2.01078 -2.088306,1.15281 -3.023809,3.02381 -0.426146,0.85229 0,2.75512 0,3.77976 0,1.27269 -2.035022,9.65276 -2.267857,9.82738 -0.901526,0.67615 -2.015874,1.00794 -3.02381,1.51191 z"
         id="path980"
         inkscape:export-filename="C:\Users\leahk\Source\Repos\tempest-hopp-git\HONGRY\Assets\Resources\Sprites\IceCream.png"
         inkscape:export-xdpi="30.106167"
         inkscape:export-ydpi="30.106167" />
    </g>
    <g
       inkscape:export-ydpi="39.156895"
       inkscape:export-xdpi="39.156895"
       inkscape:export-filename="C:\Users\leahk\Source\Repos\tempest-hopp-git\HONGRY\Assets\Resources\Sprites\Carrot.png"
       transform="translate(-151.94643,-281.21429)"
       id="g994">
      <path
         style="fill:#ff8900;fill-opacity:1;stroke:#000000;stroke-width:0.264583px;stroke-linecap:butt;stroke-linejoin:miter;stroke-opacity:1"
         d="M 84.666666,127 95.249999,190.5 105.83333,127 Z"
         id="path988"
         inkscape:export-filename="C:\Users\leahk\Source\Repos\tempest-hopp-git\HONGRY\Assets\Resources\Sprites\Carrot.png"
         inkscape:export-xdpi="15.588752"
         inkscape:export-ydpi="15.588752" />
      <path
         style="fill:#008900;fill-opacity:1;stroke:#000000;stroke-width:0.345526px;stroke-linecap:butt;stroke-linejoin:miter;stroke-opacity:1"
         d="m 84.705129,129.65463 c -1.703791,1.02837 0.837821,-16.81602 0,-16.81602 -1.123158,0 1.004581,3.44944 1.506876,5.17417 0.355176,1.21953 0.191858,2.91645 0.753437,3.8806 1.299694,2.23137 1.12091,-12.30451 2.260314,-10.34829 1.517303,2.60495 1.300684,7.05324 2.260312,10.34829 0.112315,0.38568 -0.07942,-0.88449 0,-1.29354 0.355175,-1.82935 1.004584,-3.44942 1.506874,-5.17414 0.251145,-0.86236 0.356342,-3.26883 0.753437,-2.58709 0.20929,0.3593 -0.139525,5.50951 0,6.46772 0.996184,6.84116 2.872571,-1.05118 3.767188,-2.58713 5.28e-4,-9e-4 -0.324391,4.61726 0,5.17418 2.557433,4.39069 4.584373,-14.22893 3.767173,-14.22893 -0.35654,0 0.189,15.84696 0.75344,16.81601 1.29303,2.21993 2.20487,-6.3725 2.26034,-6.46768 0.49461,-0.84918 1.40612,3.96707 3.01374,2.58706 1.28388,-1.10211 1.81095,-10.96897 -0.75345,5.17415 -0.60889,3.83303 -1.50685,8.88503 -1.50685,12.93541 0,0.86235 0.35516,-1.9773 0,-2.58707 -1.16792,-2.00515 -4.44875,-4.49653 -6.027518,-5.17418 -1.759256,-0.75509 -2.240346,-1.27638 -3.767187,-2.58705 -2.213701,-1.90031 -8.48984,0.41008 -10.548126,1.29353 z"
         id="path990"
         inkscape:export-filename="C:\Users\leahk\Source\Repos\tempest-hopp-git\HONGRY\Assets\Resources\Sprites\Carrot.png"
         inkscape:export-xdpi="15.588752"
         inkscape:export-ydpi="15.588752" />
    </g>
    <g
       transform="translate(338.66667,-359.83333)"
       inkscape:export-ydpi="15.588752"
       inkscape:export-xdpi="15.588752"
       inkscape:export-filename="C:\Users\leahk\Source\Repos\tempest-hopp-git\HONGRY\Assets\Resources\Sprites\Tomato.png"
       id="g1002">
      <ellipse
         style="opacity:0.995;fill:#d54200;fill-opacity:1;stroke:#ffffff;stroke-width:0.264999"
         id="path996"
         cx="111.125"
         cy="174.625"
         rx="37.041668"
         ry="26.458332" />
      <path
         style="fill:#009a00;fill-opacity:1;stroke:#000000;stroke-width:0.264583px;stroke-linecap:butt;stroke-linejoin:miter;stroke-opacity:1"
         d="m 95.249999,158.75 c -1.007936,-2.51984 -2.165583,-4.98484 -3.023809,-7.55953 -0.522034,-1.5661 2.902992,-8.5571 1.511903,-11.33928 -0.514911,-1.02983 -2.267855,-1.91525 -2.267855,-3.02381 0,-2.06914 9.928262,3.88064 10.583332,4.53571 0.80332,0.80332 -0.73168,2.26786 1.5119,2.26786 0.25199,0 0.64327,0.22538 0.75596,0 0.22538,-0.45076 -0.22538,-1.06114 0,-1.5119 0.11269,-0.22539 0.50397,0 0.75595,0 0.25198,-0.50397 0.57777,-0.97737 0.75595,-1.51191 0.34638,-1.03913 -0.79228,-5.25533 0,-6.04762 1.13676,-1.13675 8.32387,4.92628 9.07143,6.04762 0.41034,0.61551 1.01949,2.53139 1.51191,3.02381 1.37888,1.37889 2.23674,-2.23674 2.26785,-2.26786 0.35636,-0.35636 1.15555,0.35636 1.51191,0 0.37797,-0.37797 -0.37798,-1.88988 0,-2.26785 0.17818,-0.17818 0.57777,0.17818 0.75595,0 0.14861,-0.14861 0.53526,-4.00046 2.26786,-2.26786 0.67105,0.67105 0.28844,3.6007 0.75595,4.53571 0.31874,0.63748 1.28652,0.83576 1.5119,1.51191 0.55497,1.6649 0.62601,2.00796 1.51191,3.77976 1.83416,3.66833 -2.62486,5.29167 -5.29167,5.29167 -3.45143,0 -0.99671,-0.49836 -3.02381,-1.51191 -0.62939,-0.3147 -2.5443,0.47951 -3.02381,0 -0.17818,-0.17818 0.17818,-0.57777 0,-0.75595 -0.61198,-0.61198 -5.08614,0 -6.04762,0 -2.01508,0 -6.55224,-0.88162 -8.31547,0 -0.96962,0.48481 -2.017319,1.93236 -3.023812,2.26786 -0.478105,0.15936 -1.061141,-0.22538 -1.511903,0 -0.225383,0.11269 0.178178,0.57777 0,0.75595 -0.723847,0.72384 -1.376828,-0.32468 -1.511906,0.75595 -0.218784,1.75027 0,3.52778 0,5.29167"
         id="path998" />
    </g>
    <g
       transform="translate(-372.68452,-123.22024)"
       id="g1592">
      <ellipse
         style="opacity:0.995;fill:#006500;fill-opacity:1;stroke:#ffffff;stroke-width:0.399911"
         id="path1008"
         cx="119.95924"
         cy="132.6731"
         rx="26.772308"
         ry="38.111595"
         inkscape:export-filename="C:\Users\leahk\Source\Repos\tempest-hopp-git\HONGRY\Assets\Resources\Sprites\Avocado.png"
         inkscape:export-xdpi="15.588752"
         inkscape:export-ydpi="15.588752" />
      <ellipse
         style="opacity:0.995;fill:#006500;fill-opacity:1;stroke:none;stroke-width:0.416157"
         id="path1010"
         cx="119.41887"
         cy="155.75319"
         rx="33.240307"
         ry="41.550385"
         inkscape:export-filename="C:\Users\leahk\Source\Repos\tempest-hopp-git\HONGRY\Assets\Resources\Sprites\Avocado.png"
         inkscape:export-xdpi="15.588752"
         inkscape:export-ydpi="15.588752" />
      <ellipse
         style="opacity:0.995;fill:#006500;fill-opacity:1;stroke:none;stroke-width:0.440591"
         id="path1012"
         cx="119.44048"
         cy="143.25298"
         rx="31.750002"
         ry="48.758926"
         inkscape:export-filename="C:\Users\leahk\Source\Repos\tempest-hopp-git\HONGRY\Assets\Resources\Sprites\Avocado.png"
         inkscape:export-xdpi="15.588752"
         inkscape:export-ydpi="15.588752" />
      <ellipse
         style="opacity:0.995;fill:#866500;fill-opacity:1;stroke:none;stroke-width:0.353516"
         id="path1006"
         cx="117.92857"
         cy="158.37201"
         rx="13.562884"
         ry="14.696813"
         inkscape:export-filename="C:\Users\leahk\Source\Repos\tempest-hopp-git\HONGRY\Assets\Resources\Sprites\Avocado.png"
         inkscape:export-xdpi="15.588752"
         inkscape:export-ydpi="15.588752" />
    </g>
  </g>
</svg>
